<svg version="1.1" id="Layer_1" xmlns="http://www.w3.org/2000/svg" xmlns:xlink="http://www.w3.org/1999/xlink" x="0px" y="0px"
	 width="100%" viewBox="0 0 512 512" enable-background="new 0 0 512 512" xml:space="preserve">
<path fill="#FEFEFE" opacity="1.000000" stroke="none" 
	d="
M289.000000,513.000000 
	C192.690048,513.000000 96.880096,513.000000 1.035069,513.000000 
	C1.035069,342.398346 1.035069,171.796707 1.035069,1.097524 
	C171.559967,1.097524 342.120026,1.097524 512.840027,1.097524 
	C512.840027,171.666550 512.840027,342.333252 512.840027,513.000000 
	C438.463348,513.000000 363.981659,513.000000 289.000000,513.000000 
M133.637390,374.739960 
	C134.620300,373.196716 135.594467,371.647797 136.587463,370.111084 
	C148.613602,351.499908 164.681488,338.695526 187.163498,335.417389 
	C192.141754,334.691498 197.247665,334.840942 202.395767,334.582275 
	C200.559036,329.532593 201.572723,327.671112 206.258148,328.489258 
	C211.931244,329.479797 217.645493,330.949921 222.918472,333.203369 
	C225.410797,334.268494 226.917053,337.640991 228.870071,339.968048 
	C228.517883,340.295837 228.165680,340.623627 227.813492,340.951416 
	C240.487198,347.020264 249.018219,356.903503 253.884033,369.896240 
	C259.310974,384.387390 259.974274,399.459290 258.497223,414.700714 
	C258.149811,418.285339 257.627197,421.852966 257.047974,426.538483 
	C268.506134,427.968719 279.478607,429.985962 290.527283,430.576263 
	C310.590027,431.648071 328.259155,424.356537 344.858429,413.620270 
	C359.243042,404.316437 367.642670,405.383331 379.141663,417.837097 
	C379.069336,418.496887 378.887665,419.166473 378.945740,419.814575 
	C379.104370,421.586212 379.364044,423.348846 379.583740,425.115051 
	C381.248871,424.402832 383.288025,424.084015 384.518250,422.914307 
	C392.349792,415.468231 398.531494,406.773865 401.933960,396.479980 
	C410.548218,370.418152 412.730255,343.728851 408.430725,316.622375 
	C404.664276,292.876709 395.272614,271.018585 385.127045,249.447144 
	C377.361633,232.936279 368.450012,216.919739 355.513580,204.103394 
	C350.024078,198.664810 349.779602,194.861572 352.546509,189.091141 
	C352.903992,188.345657 353.127472,187.531754 353.371918,186.736893 
	C360.809174,162.554855 366.170929,138.148407 361.482758,112.584938 
	C367.758942,110.402061 374.217316,108.287407 380.576141,105.906807 
	C386.813965,103.571510 387.609680,100.365906 382.524353,96.327560 
	C373.288788,88.993454 363.910950,81.787407 354.127075,75.221359 
	C350.486755,72.778305 348.829407,70.704720 349.023071,66.270103 
	C349.324402,59.369446 350.222076,52.344311 346.524353,45.766949 
	C341.412842,36.674736 333.698303,31.130117 323.987061,27.997564 
	C308.571899,23.025124 292.794495,21.437374 276.667786,22.737150 
	C254.128525,24.553762 239.983490,37.744724 236.817642,60.235287 
	C236.427200,63.009052 235.321136,64.230064 232.637451,65.465996 
	C219.970398,71.299637 207.424072,77.421333 195.054977,83.863235 
	C190.178650,86.402855 190.349075,90.078171 195.072632,92.830811 
	C200.090714,95.755066 205.186111,98.637878 210.513947,100.916283 
	C217.181274,103.767494 224.119934,105.984253 230.612091,108.354622 
	C229.493164,113.687889 228.184006,118.852768 227.353271,124.093498 
	C225.059021,138.567062 226.669342,152.546799 232.551666,166.098907 
	C236.861206,176.027542 244.385727,182.270950 254.138367,186.202606 
	C253.906723,187.911377 253.793976,189.228424 253.542740,190.518509 
	C251.733200,199.810608 251.727951,199.831696 242.289490,201.338699 
	C237.853577,202.046967 233.097000,201.887466 229.038818,203.507065 
	C224.794922,205.200775 222.720963,203.576218 221.008179,200.541611 
	C219.727020,198.271713 219.201462,195.587936 218.185135,193.152863 
	C216.854904,189.965652 215.703171,186.634460 213.884018,183.735870 
	C210.538101,178.404556 206.730942,173.364380 203.173950,168.163254 
	C200.700058,164.545822 198.281219,160.567230 193.242554,160.889877 
	C188.305725,161.205963 187.462982,165.883392 185.870178,169.383057 
	C184.491089,172.413086 182.466888,173.945023 179.476929,175.570221 
	C173.890762,178.606583 167.872177,182.123322 164.174698,187.047836 
	C159.122162,193.777054 153.186935,197.863190 145.327835,199.837936 
	C143.239319,200.362747 141.205215,201.121765 139.171982,201.845810 
	C131.451675,204.595016 130.585907,206.539627 133.889679,214.136200 
	C132.712036,214.907059 131.523361,215.765396 130.262054,216.498825 
	C109.242302,228.721252 98.774780,247.826294 95.007866,271.108124 
	C92.436333,287.001709 98.692207,300.511047 107.567352,313.030701 
	C110.575478,317.274109 111.641617,321.680511 110.813042,326.668671 
	C108.639938,339.751160 110.786911,352.401611 116.224709,364.186157 
	C119.281624,370.810974 124.303185,376.576630 128.813904,382.441528 
	C129.675369,383.561646 132.287415,383.335358 134.091797,383.730255 
	C134.128342,381.953339 134.305435,380.164032 134.150253,378.404022 
	C134.052597,377.296509 133.457077,376.232880 133.637390,374.739960 
M220.053360,404.594086 
	C220.251434,402.269867 220.485458,399.948090 220.641388,397.621033 
	C221.323425,387.442017 216.116638,379.013458 206.706406,375.019684 
	C194.883499,370.002014 181.359970,374.363068 174.077118,385.847015 
	C167.636124,396.003448 166.192307,407.178894 167.905792,418.959595 
	C170.157806,434.442902 179.335297,445.158905 193.988968,449.067139 
	C209.684219,453.253174 224.948669,448.340973 234.227829,436.099792 
	C240.621567,427.665161 243.893402,417.965179 245.666428,407.671021 
	C250.604553,379.000519 236.971802,356.472778 209.789612,350.369263 
	C181.631134,344.046448 155.148392,351.815369 147.754120,387.336395 
	C145.315918,399.049225 143.999313,410.991211 141.907349,422.781799 
	C140.141205,432.735962 138.599213,442.796021 135.820312,452.482819 
	C133.716507,459.816345 128.508316,465.030487 120.245552,466.264740 
	C118.975105,466.454559 117.918816,468.078064 116.763474,469.038513 
	C117.851318,470.078308 118.762436,471.612366 120.056602,472.075134 
	C126.869469,474.511169 133.477966,472.187988 138.416367,465.610565 
	C144.517807,457.484070 146.447906,447.876862 147.980087,438.097137 
	C150.578491,421.511902 152.292465,404.682343 156.387024,388.462616 
	C162.172089,365.546265 178.486343,355.456482 202.058884,357.973053 
	C220.116714,359.900879 233.871994,372.324036 236.482285,390.199432 
	C238.683014,405.270294 235.430832,419.413940 225.909409,431.610321 
	C218.372757,441.264252 207.562546,444.509796 196.025131,441.084137 
	C185.340744,437.911743 179.282349,430.283844 177.177139,419.818451 
	C174.753235,407.768768 174.598648,395.599945 184.060165,386.079407 
	C191.598160,378.494385 206.051804,381.044434 210.077927,390.387207 
	C213.595627,398.550140 211.685516,406.783691 208.459015,414.582703 
	C207.127823,417.800415 203.468765,419.391876 200.498016,417.748932 
	C198.414200,416.596527 196.971146,413.381897 196.319305,410.814667 
	C195.742737,408.543823 197.087952,405.837097 196.766602,403.432129 
	C196.529053,401.654388 194.976685,400.052368 194.010071,398.372040 
	C192.580475,399.633057 190.490616,400.635040 189.871155,402.213898 
	C188.862747,404.784180 188.575516,407.717163 188.407440,410.522430 
	C187.904968,418.908844 191.968582,424.731689 199.126404,426.241241 
	C206.968491,427.895172 214.984787,423.662994 217.551605,416.154419 
	C218.725861,412.719482 219.188370,409.041260 220.053360,404.594086 
M248.758392,441.191132 
	C244.828384,443.156647 239.973480,444.255585 237.155579,447.263092 
	C230.741852,454.108490 232.845154,463.059387 233.513168,472.077667 
	C227.570831,472.077667 221.939423,471.966797 216.318832,472.164246 
	C215.084259,472.207581 213.888199,473.347137 212.674393,473.981903 
	C213.502640,475.214813 214.187180,477.373566 215.182816,477.528107 
	C220.989777,478.429474 226.885086,478.745026 232.715805,479.519897 
	C234.514694,479.758972 236.879135,480.310516 237.835587,481.582733 
	C244.260361,490.128967 255.874924,493.786102 267.983002,490.684692 
	C278.341858,488.031311 284.615387,480.922119 286.017853,469.916321 
	C286.582031,465.488861 286.725586,461.007843 287.064606,456.498077 
	C291.302856,457.142212 295.492157,457.778900 299.261200,458.351746 
	C300.233582,464.981445 300.573578,471.356415 302.176819,477.396088 
	C305.645355,490.463074 315.640778,493.194916 325.775269,484.265411 
	C326.104370,483.975433 326.531219,483.796448 326.736572,483.672211 
	C332.041260,487.445221 337.760559,489.172119 343.870636,488.054749 
	C351.989014,486.570068 355.583313,479.462708 360.163025,473.708801 
	C373.196808,482.312347 385.736908,481.904968 398.366150,472.168915 
	C408.002197,464.740356 414.409180,454.906281 418.116394,443.401306 
	C418.739075,441.468811 418.603668,437.871674 417.425140,437.055450 
	C414.347900,434.924103 413.496277,438.500732 412.111816,440.380005 
	C406.706665,447.717102 401.994720,455.753845 395.613800,462.114807 
	C391.551788,466.164093 385.258667,468.840912 379.514954,470.142151 
	C370.034332,472.289948 362.311798,465.142883 361.881561,455.407898 
	C361.764465,452.758148 361.582550,450.019440 360.778748,447.532104 
	C360.398071,446.353882 358.424469,444.895111 357.278931,444.981140 
	C356.113342,445.068634 354.665131,446.720184 354.104370,448.017090 
	C353.557587,449.281494 354.263519,451.032410 353.923035,452.450562 
	C352.309784,459.169739 351.030884,466.037292 348.617493,472.471100 
	C347.136902,476.418304 343.987732,480.014252 338.674133,479.149292 
	C334.906128,478.535950 331.580322,473.905487 331.095917,468.483093 
	C330.860138,465.844269 330.907318,463.143494 331.173859,460.505890 
	C331.490906,457.368500 332.350525,454.285431 332.658875,451.147766 
	C332.931274,448.375763 334.747772,444.540741 330.548676,443.518066 
	C326.541321,442.542084 325.424988,446.607849 325.038177,449.213318 
	C324.051941,455.856628 323.281799,462.642609 323.537140,469.329041 
	C323.801605,476.254730 323.010956,478.528687 316.773254,481.221405 
	C313.704834,482.546021 311.202637,481.859070 310.217682,478.908875 
	C307.265869,470.067902 304.030792,461.241211 310.757629,452.319580 
	C312.344971,450.214294 312.307220,446.503113 312.066376,443.609833 
	C311.983948,442.619537 308.180817,440.724670 307.481354,441.221100 
	C305.102325,442.909454 303.347717,445.478790 301.364380,447.720337 
	C301.262756,447.835205 301.216736,448.026917 301.203003,448.187805 
	C300.909973,451.615021 298.920410,452.361847 295.997406,451.362244 
	C291.922150,449.968597 287.873169,448.495819 283.832672,447.003448 
	C278.665405,445.094910 277.359528,446.042236 277.962433,451.375397 
	C278.149445,453.029907 278.489410,454.669647 278.623077,456.327179 
	C279.180420,463.237823 278.700104,470.013672 275.076935,476.141266 
	C268.790833,486.772491 251.231506,486.477875 245.055847,475.645874 
	C247.937057,473.422791 251.090286,471.457397 253.641205,468.892883 
	C256.304352,466.215637 258.930176,463.237183 260.621826,459.907501 
	C265.572540,450.162933 260.497101,441.808502 248.758392,441.191132 
M361.843048,422.573700 
	C359.885834,419.641357 357.608002,421.085114 355.936768,422.574768 
	C352.391235,425.734924 348.967651,429.085297 345.913879,432.711212 
	C345.003540,433.792084 345.148865,436.123169 345.502380,437.729187 
	C345.643463,438.370148 347.692719,439.038361 348.810883,438.945099 
	C356.644348,438.291748 362.655731,431.089508 361.843048,422.573700 
z"/>
<path fill="#222143" opacity="1.000000" stroke="none" 
	d="
M133.084900,375.149567 
	C133.457077,376.232880 134.052597,377.296509 134.150253,378.404022 
	C134.305435,380.164032 134.128342,381.953339 134.091797,383.730255 
	C132.287415,383.335358 129.675369,383.561646 128.813904,382.441528 
	C124.303185,376.576630 119.281624,370.810974 116.224709,364.186157 
	C110.786911,352.401611 108.639938,339.751160 110.813042,326.668671 
	C111.641617,321.680511 110.575478,317.274109 107.567352,313.030701 
	C98.692207,300.511047 92.436333,287.001709 95.007866,271.108124 
	C98.774780,247.826294 109.242302,228.721252 130.262054,216.498825 
	C131.523361,215.765396 132.712036,214.907059 133.889679,214.136200 
	C130.585907,206.539627 131.451675,204.595016 139.171982,201.845810 
	C141.205215,201.121765 143.239319,200.362747 145.327835,199.837936 
	C153.186935,197.863190 159.122162,193.777054 164.174698,187.047836 
	C167.872177,182.123322 173.890762,178.606583 179.476929,175.570221 
	C182.466888,173.945023 184.491089,172.413086 185.870178,169.383057 
	C187.462982,165.883392 188.305725,161.205963 193.242554,160.889877 
	C198.281219,160.567230 200.700058,164.545822 203.173950,168.163254 
	C206.730942,173.364380 210.538101,178.404556 213.884018,183.735870 
	C215.703171,186.634460 216.854904,189.965652 218.185135,193.152863 
	C219.201462,195.587936 219.727020,198.271713 221.008179,200.541611 
	C222.720963,203.576218 224.794922,205.200775 229.038818,203.507065 
	C233.097000,201.887466 237.853577,202.046967 242.289490,201.338699 
	C251.727951,199.831696 251.733200,199.810608 253.542740,190.518509 
	C253.793976,189.228424 253.906723,187.911377 254.138367,186.202606 
	C244.385727,182.270950 236.861206,176.027542 232.551666,166.098907 
	C226.669342,152.546799 225.059021,138.567062 227.353271,124.093498 
	C228.184006,118.852768 229.493164,113.687889 230.612091,108.354622 
	C224.119934,105.984253 217.181274,103.767494 210.513947,100.916283 
	C205.186111,98.637878 200.090714,95.755066 195.072632,92.830811 
	C190.349075,90.078171 190.178650,86.402855 195.054977,83.863235 
	C207.424072,77.421333 219.970398,71.299637 232.637451,65.465996 
	C235.321136,64.230064 236.427200,63.009052 236.817642,60.235287 
	C239.983490,37.744724 254.128525,24.553762 276.667786,22.737150 
	C292.794495,21.437374 308.571899,23.025124 323.987061,27.997564 
	C333.698303,31.130117 341.412842,36.674736 346.524353,45.766949 
	C350.222076,52.344311 349.324402,59.369446 349.023071,66.270103 
	C348.829407,70.704720 350.486755,72.778305 354.127075,75.221359 
	C363.910950,81.787407 373.288788,88.993454 382.524353,96.327560 
	C387.609680,100.365906 386.813965,103.571510 380.576141,105.906807 
	C374.217316,108.287407 367.758942,110.402061 361.482758,112.584938 
	C366.170929,138.148407 360.809174,162.554855 353.371918,186.736893 
	C353.127472,187.531754 352.903992,188.345657 352.546509,189.091141 
	C349.779602,194.861572 350.024078,198.664810 355.513580,204.103394 
	C368.450012,216.919739 377.361633,232.936279 385.127045,249.447144 
	C395.272614,271.018585 404.664276,292.876709 408.430725,316.622375 
	C412.730255,343.728851 410.548218,370.418152 401.933960,396.479980 
	C398.531494,406.773865 392.349792,415.468231 384.518250,422.914307 
	C383.288025,424.084015 381.248871,424.402832 379.583740,425.115051 
	C379.364044,423.348846 379.104370,421.586212 378.945740,419.814575 
	C378.887665,419.166473 379.069336,418.496887 379.438324,417.329987 
	C387.982666,407.353302 392.901794,396.050629 396.870911,384.388428 
	C403.405151,365.189514 402.788422,345.376801 400.604889,325.581543 
	C400.115570,321.145203 398.419922,316.841949 397.370544,312.174591 
	C395.844147,305.713379 394.226837,299.554962 392.685547,293.005249 
	C385.990417,264.902130 360.350311,215.821213 349.753418,210.286743 
	C351.727966,225.784744 351.210571,229.818924 346.935486,245.079361 
	C346.111786,248.019745 346.422974,251.791306 347.538177,254.664139 
	C350.724426,262.872437 350.096436,270.854645 348.094604,279.134827 
	C347.317657,282.348480 347.223419,286.113342 348.098267,289.272644 
	C351.690643,302.245026 346.716217,318.830261 336.211853,327.293915 
	C333.441101,329.526428 330.471527,330.100708 328.615356,326.635803 
	C322.726654,315.643524 318.317993,304.338379 321.072937,291.328979 
	C321.763428,288.068420 321.102905,284.144165 319.932404,280.937805 
	C316.407837,271.283081 313.228363,261.804993 316.590118,251.324173 
	C317.262726,249.227158 316.698486,246.195984 315.624664,244.167114 
	C310.330444,234.164474 309.704529,223.523392 310.760162,212.637268 
	C311.696808,202.978790 306.575348,195.375748 303.023315,185.638626 
	C298.583954,194.738129 294.388702,202.044296 293.674774,210.807037 
	C292.919678,220.075485 291.731812,229.308334 290.763031,238.559891 
	C290.320740,242.783539 289.612122,247.015259 289.618561,251.242416 
	C289.631805,259.969940 290.181854,268.695923 290.240814,277.424377 
	C290.277313,282.835144 289.520203,288.255829 289.639709,293.660553 
	C289.917450,306.221191 287.264557,317.790802 278.870392,327.496368 
	C275.506592,331.385651 272.859192,331.085175 270.095367,326.991547 
	C263.284454,316.903687 258.966736,306.024078 261.057495,293.649780 
	C261.978912,288.196472 260.386810,283.636353 259.127045,278.514069 
	C257.180817,270.600616 257.620911,262.111755 256.895752,253.880463 
	C256.623932,250.795120 256.505951,247.496704 255.313690,244.727814 
	C251.038727,234.799866 248.248688,224.667572 249.031555,213.748459 
	C249.157913,211.986099 249.049316,210.206924 249.049316,206.751602 
	C242.332062,208.634430 236.643616,210.228882 230.777771,211.873062 
	C231.269836,213.471283 231.389557,214.124695 231.662048,214.706558 
	C239.054077,230.491562 229.221863,240.813004 214.657349,241.192139 
	C207.837662,241.369659 201.019333,241.718185 194.212280,242.168884 
	C192.703049,242.268814 190.520691,242.679657 189.883179,243.710815 
	C186.580429,249.052963 183.678299,254.642792 180.340851,260.253784 
	C178.229828,264.150482 176.414459,267.939606 174.270874,271.817352 
	C172.835999,274.187469 171.729340,276.468964 170.386826,278.988342 
	C168.456879,282.271118 166.762817,285.316071 164.835480,288.581757 
	C160.298569,293.832428 155.994904,298.862305 151.391174,303.997986 
	C148.883926,306.271942 146.676743,308.440094 144.122406,310.634399 
	C139.685791,312.845947 135.707108,315.278320 131.486343,317.170868 
	C118.308479,323.079895 118.273048,323.000824 119.002510,337.591736 
	C119.010803,337.757568 119.002769,337.924988 119.021629,338.089478 
	C120.574509,351.632263 124.145271,364.409729 133.084900,375.149567 
M285.515442,31.761648 
	C284.017029,31.779942 282.518646,31.798378 281.020233,31.816509 
	C258.836884,32.084942 245.911652,42.181801 245.083237,66.479439 
	C244.945801,70.509796 242.453384,71.686852 239.297073,72.880623 
	C231.080902,75.988106 222.891464,79.187210 214.826843,82.664009 
	C211.640869,84.037544 208.813950,86.243904 205.823532,88.071053 
	C205.857178,88.749428 205.890823,89.427803 205.924484,90.106186 
	C217.263184,93.708000 228.374313,98.546631 239.982727,100.682709 
	C276.689148,107.437065 313.748657,107.819839 350.836456,104.065529 
	C357.612030,103.379639 364.287811,101.708511 371.009674,100.492180 
	C371.200439,99.747635 371.391235,99.003090 371.582001,98.258545 
	C364.220886,92.732063 357.318420,86.379463 349.346313,81.953522 
	C343.494324,78.704628 341.555420,75.508682 341.965302,68.899971 
	C343.210693,48.819782 331.291138,34.960636 311.409454,32.901276 
	C303.158875,32.046680 294.813171,32.110935 285.515442,31.761648 
M211.097214,197.483307 
	C208.876678,193.648239 206.743591,189.758942 204.409454,185.994308 
	C202.339737,182.656174 200.001801,179.485428 197.872894,176.182388 
	C196.947754,174.747025 196.249649,173.165375 195.007675,170.816666 
	C193.292023,173.996201 192.349258,176.525757 190.733551,178.506317 
	C189.268906,180.301697 187.232925,182.440002 185.167892,182.795624 
	C176.513214,184.286026 170.470978,188.755630 167.329605,196.900024 
	C165.750946,200.992905 162.890121,202.481461 158.730820,203.232162 
	C153.290298,204.214127 148.009445,206.080887 141.360626,207.927948 
	C147.975174,211.920715 153.495789,213.194916 159.466660,212.234802 
	C163.291077,211.619827 165.825806,212.906403 166.133896,216.895447 
	C166.580276,222.675415 166.861145,228.482895 166.801468,234.274414 
	C166.789917,235.397369 164.945724,237.411438 163.859116,237.473312 
	C152.271210,238.133057 144.848755,245.533768 137.831863,253.414474 
	C135.942749,255.536118 134.536942,258.477814 133.910324,261.267853 
	C130.836243,274.955780 136.683716,286.007904 144.703812,296.827576 
	C162.208618,280.041229 171.672058,258.592407 182.675552,239.297836 
	C181.742401,236.819534 180.988785,234.818085 180.235168,232.816635 
	C182.364960,232.840851 184.518616,232.671173 186.619507,232.929993 
	C190.863190,233.452850 195.086899,234.782913 199.302811,234.719223 
	C204.318924,234.643433 209.319260,233.460434 214.324203,232.741745 
	C215.970032,232.505386 217.646393,232.360825 219.244293,231.933273 
	C225.156784,230.351181 226.695450,226.990616 224.560394,221.888809 
	C221.713577,221.888809 219.154526,221.888809 216.595490,221.888809 
	C217.659134,219.244339 218.722778,216.599884 219.620056,214.369034 
	C216.959671,209.212433 214.129929,203.727524 211.097214,197.483307 
M127.808846,281.484985 
	C124.522270,275.124512 123.704224,268.056824 125.403221,261.512726 
	C127.987236,251.559753 129.603363,239.987854 143.578125,238.780258 
	C144.029297,238.741272 144.445038,238.309692 144.880341,238.066528 
	C148.364685,236.120148 151.783463,234.041275 155.355316,232.271362 
	C158.275497,230.824371 160.265121,229.326233 159.717194,225.458633 
	C159.154984,221.490097 157.357666,219.365997 153.410736,219.393448 
	C149.792465,219.418594 145.893143,218.932602 142.605026,220.074844 
	C120.801422,227.649063 108.906372,244.591888 103.200050,265.658783 
	C99.192917,280.452454 104.724976,294.472961 111.728172,307.714386 
	C113.858261,311.741882 116.814957,312.636078 120.783768,311.874573 
	C128.629807,310.369171 134.637451,305.861481 140.241791,300.195007 
	C136.080490,293.996704 132.108902,288.080933 127.808846,281.484985 
M244.470871,127.963181 
	C242.548996,122.621704 240.627106,117.280235 238.509232,111.394028 
	C230.483307,140.198456 236.967010,169.610382 255.940125,179.606918 
	C255.161987,172.411774 254.987503,165.980850 253.605804,159.820694 
	C252.770538,156.096771 252.949799,153.627655 255.698227,150.926743 
	C259.793030,146.902756 263.165802,142.214203 263.040192,136.138397 
	C262.992523,133.833344 261.744659,131.553085 261.043854,129.261536 
	C258.915344,129.985519 256.554382,130.339050 254.701248,131.501862 
	C248.771622,135.222565 247.490250,134.960632 244.470871,127.963181 
z"/>
<path fill="#E94039" opacity="1.000000" stroke="none" 
	d="
M180.636505,260.146271 
	C183.678299,254.642792 186.580429,249.052963 189.883179,243.710815 
	C190.520691,242.679657 192.703049,242.268814 194.212280,242.168884 
	C201.019333,241.718185 207.837662,241.369659 214.657349,241.192139 
	C229.221863,240.813004 239.054077,230.491562 231.662048,214.706558 
	C231.389557,214.124695 231.269836,213.471283 230.777771,211.873062 
	C236.643616,210.228882 242.332062,208.634430 249.049316,206.751602 
	C249.049316,210.206924 249.157913,211.986099 249.031555,213.748459 
	C248.248688,224.667572 251.038727,234.799866 255.313690,244.727814 
	C256.505951,247.496704 256.623932,250.795120 256.895752,253.880463 
	C257.620911,262.111755 257.180817,270.600616 259.127045,278.514069 
	C260.386810,283.636353 261.978912,288.196472 261.057495,293.649780 
	C258.966736,306.024078 263.284454,316.903687 270.095367,326.991547 
	C272.859192,331.085175 275.506592,331.385651 278.870392,327.496368 
	C287.264557,317.790802 289.917450,306.221191 289.639709,293.660553 
	C289.520203,288.255829 290.277313,282.835144 290.240814,277.424377 
	C290.181854,268.695923 289.631805,259.969940 289.618561,251.242416 
	C289.612122,247.015259 290.320740,242.783539 290.763031,238.559891 
	C291.731812,229.308334 292.919678,220.075485 293.674774,210.807037 
	C294.388702,202.044296 298.583954,194.738129 303.023315,185.638626 
	C306.575348,195.375748 311.696808,202.978790 310.760162,212.637268 
	C309.704529,223.523392 310.330444,234.164474 315.624664,244.167114 
	C316.698486,246.195984 317.262726,249.227158 316.590118,251.324173 
	C313.228363,261.804993 316.407837,271.283081 319.932404,280.937805 
	C321.102905,284.144165 321.763428,288.068420 321.072937,291.328979 
	C318.317993,304.338379 322.726654,315.643524 328.615356,326.635803 
	C330.471527,330.100708 333.441101,329.526428 336.211853,327.293915 
	C346.716217,318.830261 351.690643,302.245026 348.098267,289.272644 
	C347.223419,286.113342 347.317657,282.348480 348.094604,279.134827 
	C350.096436,270.854645 350.724426,262.872437 347.538177,254.664139 
	C346.422974,251.791306 346.111786,248.019745 346.935486,245.079361 
	C351.210571,229.818924 351.727966,225.784744 349.753418,210.286743 
	C360.350311,215.821213 385.990417,264.902130 392.366577,292.894531 
	C390.137421,291.267242 388.267578,289.392151 386.476440,287.444672 
	C382.634674,283.267548 381.475586,283.263092 378.305969,288.167755 
	C375.358856,292.728180 372.707855,297.479919 369.959137,302.092651 
	C366.923187,299.404755 364.361664,296.782593 361.410126,294.718018 
	C360.392090,294.005920 358.078827,294.183838 356.971771,294.902191 
	C356.245819,295.373260 356.057220,297.844543 356.616394,298.892639 
	C358.001923,301.489563 359.615448,304.156982 361.761932,306.109436 
	C364.774475,308.849640 364.445435,311.177002 361.913818,313.662567 
	C359.429413,316.101807 356.633728,318.233978 354.242340,320.754822 
	C352.301941,322.800323 350.157227,325.700500 353.008911,327.925140 
	C354.158325,328.821838 358.037537,327.551849 359.726288,326.136566 
	C362.868958,323.502777 365.366882,320.082001 368.038849,316.909332 
	C370.485229,314.004578 372.645538,314.512817 375.012329,317.048981 
	C377.158264,319.348572 379.345398,321.674164 381.826721,323.582031 
	C386.171875,326.922974 388.620728,326.325104 391.551819,321.663910 
	C393.472778,318.609100 395.371124,315.540070 397.279602,312.477417 
	C398.419922,316.841949 400.115570,321.145203 400.604889,325.581543 
	C402.788422,345.376801 403.405151,365.189514 396.870911,384.388428 
	C392.901794,396.050629 387.982666,407.353302 379.417725,416.937805 
	C367.642670,405.383331 359.243042,404.316437 344.858429,413.620270 
	C328.259155,424.356537 310.590027,431.648071 290.527283,430.576263 
	C279.478607,429.985962 268.506134,427.968719 257.047974,426.538483 
	C257.627197,421.852966 258.149811,418.285339 258.497223,414.700714 
	C259.974274,399.459290 259.310974,384.387390 253.884033,369.896240 
	C249.018219,356.903503 240.487198,347.020264 227.813492,340.951416 
	C228.165680,340.623627 228.517883,340.295837 228.870071,339.968048 
	C226.917053,337.640991 225.410797,334.268494 222.918472,333.203369 
	C217.645493,330.949921 211.931244,329.479797 206.258148,328.489258 
	C201.572723,327.671112 200.559036,329.532593 202.395767,334.582275 
	C197.247665,334.840942 192.141754,334.691498 187.163498,335.417389 
	C164.681488,338.695526 148.613602,351.499908 136.587463,370.111084 
	C135.594467,371.647797 134.620300,373.196716 133.361145,374.944763 
	C124.145271,364.409729 120.574509,351.632263 119.021629,338.089478 
	C119.002769,337.924988 119.010803,337.757568 119.002510,337.591736 
	C118.273048,323.000824 118.308479,323.079895 131.486343,317.170868 
	C135.707108,315.278320 139.685791,312.845947 144.518845,310.749939 
	C149.182404,312.207642 153.060394,313.728363 157.054291,314.828186 
	C157.957809,315.076996 159.914948,314.089966 160.205338,313.258850 
	C160.505844,312.398804 159.641708,310.754181 158.807983,309.948395 
	C156.572601,307.788025 154.081039,305.892761 151.691254,303.892181 
	C155.994904,298.862305 160.298569,293.832428 165.244431,288.501648 
	C169.485519,287.593079 173.867508,285.465851 176.463684,286.803833 
	C179.075409,288.149811 179.977356,292.912140 181.510040,296.232117 
	C184.441940,302.582916 188.162170,304.205170 194.805801,301.857147 
	C197.468567,300.916107 200.067123,299.779938 202.759262,298.938477 
	C207.496872,297.457672 211.424011,298.803162 213.893433,303.111755 
	C215.696854,306.258331 217.146378,309.638336 218.458694,313.028473 
	C220.354202,317.925232 222.274963,318.948700 227.168777,316.877838 
	C230.535873,315.453033 233.773987,313.726410 237.096207,312.191956 
	C243.914520,309.042786 243.833359,309.120605 248.180130,315.320709 
	C250.641571,318.831604 253.449875,322.099304 256.101959,325.476562 
	C256.769623,325.203186 257.437317,324.929810 258.105011,324.656433 
	C258.105011,322.706573 258.587463,320.591278 257.989227,318.846558 
	C257.142822,316.378143 255.570847,314.138763 254.178589,311.881958 
	C252.041168,308.417328 249.820404,305.117920 252.818863,300.888336 
	C253.249771,300.280457 251.827347,297.245178 251.308258,297.257507 
	C247.854935,297.339417 247.273499,294.892975 246.458344,292.528381 
	C245.103226,288.597473 243.742142,284.668640 242.405930,280.731293 
	C240.330521,274.615784 238.057434,273.646881 232.502167,276.882111 
	C229.345749,278.720306 226.394852,280.913544 223.366653,282.969330 
	C216.209991,287.827881 214.662888,287.408936 211.444046,279.549194 
	C209.994217,276.009003 208.626038,272.433044 207.315399,268.838806 
	C205.398453,263.581909 203.248016,262.659546 198.293121,265.285950 
	C196.390274,266.294586 194.691223,267.681763 192.814758,268.747559 
	C190.011932,270.339539 187.134293,271.799744 183.659744,273.651001 
	C182.507217,268.502716 181.571869,264.324493 180.636505,260.146271 
M291.896393,321.475494 
	C290.499939,324.057892 289.103455,326.640320 287.319885,329.938538 
	C297.012909,330.269928 300.964630,322.717438 306.702911,319.886963 
	C310.499603,323.212585 313.740356,326.282013 317.265533,328.979706 
	C318.166443,329.669128 320.492859,329.750061 321.214325,329.083008 
	C322.008026,328.349213 322.274078,326.166229 321.769073,325.079865 
	C320.524536,322.402405 319.014740,319.711212 317.042603,317.543091 
	C314.492004,314.739136 311.913452,312.406616 314.847015,308.317352 
	C315.398590,307.548492 314.812897,305.963776 314.728241,304.283600 
	C312.233459,304.977661 310.401550,305.487305 308.595093,305.989868 
	C307.363007,304.000031 306.600555,301.692108 305.007782,300.442322 
	C302.462372,298.444977 298.233398,295.111816 296.720367,295.952118 
	C292.657928,298.208344 295.739166,302.122040 297.183289,305.046722 
	C301.280762,313.344727 301.395782,313.286469 294.242676,319.283844 
	C293.605347,319.818176 292.989197,320.377716 291.896393,321.475494 
M337.284454,348.631104 
	C338.442383,349.142761 339.657959,350.192017 340.748535,350.075195 
	C346.168701,349.494446 351.661682,349.006439 356.900482,347.621368 
	C358.875580,347.099182 360.235474,344.250031 361.875824,342.461700 
	C359.676880,341.419922 357.460693,339.482452 355.282562,339.524323 
	C350.855988,339.609314 346.470673,340.968506 342.029449,341.418121 
	C337.824036,341.843872 335.929169,343.624725 337.284454,348.631104 
M328.168396,343.897400 
	C322.308716,344.157135 316.429199,344.223297 310.604248,344.821289 
	C309.255554,344.959747 308.093353,346.914520 306.845337,348.033508 
	C308.205414,349.277039 309.533661,351.541687 310.931213,351.585297 
	C316.622589,351.762909 322.443542,351.849213 328.006348,350.825653 
	C332.624054,349.975983 332.730072,347.429077 328.168396,343.897400 
M296.283417,344.872437 
	C290.219147,344.333435 284.160156,343.559601 278.086853,343.423218 
	C276.597931,343.389771 275.062195,345.439941 273.548004,346.532135 
	C274.705963,347.751068 275.769470,349.903107 277.037811,350.031464 
	C283.370819,350.672577 289.796600,351.333191 296.111786,350.885986 
	C300.342102,350.586426 300.488464,348.369171 296.283417,344.872437 
M387.786560,339.235291 
	C388.566040,338.961121 389.516571,338.880768 390.090759,338.373962 
	C391.451874,337.172516 392.634491,335.768768 393.889282,334.446838 
	C392.344360,333.566498 390.624908,331.729828 389.285370,331.974396 
	C384.006470,332.938049 378.773712,334.342163 373.695404,336.083221 
	C372.453033,336.509186 371.861237,338.832855 370.970337,340.284027 
	C372.566467,341.176636 374.314240,343.009369 375.729584,342.781097 
	C379.582092,342.159698 383.294098,340.666809 387.786560,339.235291 
M258.263214,341.044403 
	C253.939774,339.994110 249.651169,338.749847 245.280106,337.964722 
	C242.563522,337.476776 239.245926,337.991394 239.343338,341.372589 
	C239.389587,342.978241 242.167175,345.347015 244.116379,345.883087 
	C248.348923,347.047241 252.832748,347.533447 257.238037,347.717255 
	C258.992981,347.790497 260.811859,346.330841 262.601654,345.568970 
	C261.417786,344.098389 260.233917,342.627777 258.263214,341.044403 
M183.825989,327.217621 
	C185.408051,326.735626 186.990128,326.253632 188.572189,325.771637 
	C188.203201,324.762970 188.131042,323.247101 187.416473,322.828888 
	C183.153107,320.333588 178.864700,317.785645 174.305130,315.949646 
	C172.924316,315.393616 170.655396,317.043060 168.793243,317.682312 
	C169.673447,319.484558 170.093643,322.171143 171.524246,322.915283 
	C175.125977,324.788788 179.183533,325.785950 183.825989,327.217621 
z"/>
<path fill="#242848" opacity="1.000000" stroke="none" 
	d="
M220.013519,405.033722 
	C219.188370,409.041260 218.725861,412.719482 217.551605,416.154419 
	C214.984787,423.662994 206.968491,427.895172 199.126404,426.241241 
	C191.968582,424.731689 187.904968,418.908844 188.407440,410.522430 
	C188.575516,407.717163 188.862747,404.784180 189.871155,402.213898 
	C190.490616,400.635040 192.580475,399.633057 194.010071,398.372040 
	C194.976685,400.052368 196.529053,401.654388 196.766602,403.432129 
	C197.087952,405.837097 195.742737,408.543823 196.319305,410.814667 
	C196.971146,413.381897 198.414200,416.596527 200.498016,417.748932 
	C203.468765,419.391876 207.127823,417.800415 208.459015,414.582703 
	C211.685516,406.783691 213.595627,398.550140 210.077927,390.387207 
	C206.051804,381.044434 191.598160,378.494385 184.060165,386.079407 
	C174.598648,395.599945 174.753235,407.768768 177.177139,419.818451 
	C179.282349,430.283844 185.340744,437.911743 196.025131,441.084137 
	C207.562546,444.509796 218.372757,441.264252 225.909409,431.610321 
	C235.430832,419.413940 238.683014,405.270294 236.482285,390.199432 
	C233.871994,372.324036 220.116714,359.900879 202.058884,357.973053 
	C178.486343,355.456482 162.172089,365.546265 156.387024,388.462616 
	C152.292465,404.682343 150.578491,421.511902 147.980087,438.097137 
	C146.447906,447.876862 144.517807,457.484070 138.416367,465.610565 
	C133.477966,472.187988 126.869469,474.511169 120.056602,472.075134 
	C118.762436,471.612366 117.851318,470.078308 116.763474,469.038513 
	C117.918816,468.078064 118.975105,466.454559 120.245552,466.264740 
	C128.508316,465.030487 133.716507,459.816345 135.820312,452.482819 
	C138.599213,442.796021 140.141205,432.735962 141.907349,422.781799 
	C143.999313,410.991211 145.315918,399.049225 147.754120,387.336395 
	C155.148392,351.815369 181.631134,344.046448 209.789612,350.369263 
	C236.971802,356.472778 250.604553,379.000519 245.666428,407.671021 
	C243.893402,417.965179 240.621567,427.665161 234.227829,436.099792 
	C224.948669,448.340973 209.684219,453.253174 193.988968,449.067139 
	C179.335297,445.158905 170.157806,434.442902 167.905792,418.959595 
	C166.192307,407.178894 167.636124,396.003448 174.077118,385.847015 
	C181.359970,374.363068 194.883499,370.002014 206.706406,375.019684 
	C216.116638,379.013458 221.323425,387.442017 220.641388,397.621033 
	C220.485458,399.948090 220.251434,402.269867 220.013519,405.033722 
z"/>
<path fill="#242747" opacity="1.000000" stroke="none" 
	d="
M249.172089,441.167816 
	C260.497101,441.808502 265.572540,450.162933 260.621826,459.907501 
	C258.930176,463.237183 256.304352,466.215637 253.641205,468.892883 
	C251.090286,471.457397 247.937057,473.422791 245.055847,475.645874 
	C251.231506,486.477875 268.790833,486.772491 275.076935,476.141266 
	C278.700104,470.013672 279.180420,463.237823 278.623077,456.327179 
	C278.489410,454.669647 278.149445,453.029907 277.962433,451.375397 
	C277.359528,446.042236 278.665405,445.094910 283.832672,447.003448 
	C287.873169,448.495819 291.922150,449.968597 295.997406,451.362244 
	C298.920410,452.361847 300.909973,451.615021 301.203003,448.187805 
	C301.216736,448.026917 301.262756,447.835205 301.364380,447.720337 
	C303.347717,445.478790 305.102325,442.909454 307.481354,441.221100 
	C308.180817,440.724670 311.983948,442.619537 312.066376,443.609833 
	C312.307220,446.503113 312.344971,450.214294 310.757629,452.319580 
	C304.030792,461.241211 307.265869,470.067902 310.217682,478.908875 
	C311.202637,481.859070 313.704834,482.546021 316.773254,481.221405 
	C323.010956,478.528687 323.801605,476.254730 323.537140,469.329041 
	C323.281799,462.642609 324.051941,455.856628 325.038177,449.213318 
	C325.424988,446.607849 326.541321,442.542084 330.548676,443.518066 
	C334.747772,444.540741 332.931274,448.375763 332.658875,451.147766 
	C332.350525,454.285431 331.490906,457.368500 331.173859,460.505890 
	C330.907318,463.143494 330.860138,465.844269 331.095917,468.483093 
	C331.580322,473.905487 334.906128,478.535950 338.674133,479.149292 
	C343.987732,480.014252 347.136902,476.418304 348.617493,472.471100 
	C351.030884,466.037292 352.309784,459.169739 353.923035,452.450562 
	C354.263519,451.032410 353.557587,449.281494 354.104370,448.017090 
	C354.665131,446.720184 356.113342,445.068634 357.278931,444.981140 
	C358.424469,444.895111 360.398071,446.353882 360.778748,447.532104 
	C361.582550,450.019440 361.764465,452.758148 361.881561,455.407898 
	C362.311798,465.142883 370.034332,472.289948 379.514954,470.142151 
	C385.258667,468.840912 391.551788,466.164093 395.613800,462.114807 
	C401.994720,455.753845 406.706665,447.717102 412.111816,440.380005 
	C413.496277,438.500732 414.347900,434.924103 417.425140,437.055450 
	C418.603668,437.871674 418.739075,441.468811 418.116394,443.401306 
	C414.409180,454.906281 408.002197,464.740356 398.366150,472.168915 
	C385.736908,481.904968 373.196808,482.312347 360.163025,473.708801 
	C355.583313,479.462708 351.989014,486.570068 343.870636,488.054749 
	C337.760559,489.172119 332.041260,487.445221 326.736572,483.672211 
	C326.531219,483.796448 326.104370,483.975433 325.775269,484.265411 
	C315.640778,493.194916 305.645355,490.463074 302.176819,477.396088 
	C300.573578,471.356415 300.233582,464.981445 299.261200,458.351746 
	C295.492157,457.778900 291.302856,457.142212 287.064606,456.498077 
	C286.725586,461.007843 286.582031,465.488861 286.017853,469.916321 
	C284.615387,480.922119 278.341858,488.031311 267.983002,490.684692 
	C255.874924,493.786102 244.260361,490.128967 237.835587,481.582733 
	C236.879135,480.310516 234.514694,479.758972 232.715805,479.519897 
	C226.885086,478.745026 220.989777,478.429474 215.182816,477.528107 
	C214.187180,477.373566 213.502640,475.214813 212.674408,473.981903 
	C213.888199,473.347137 215.084259,472.207581 216.318832,472.164246 
	C221.939423,471.966797 227.570831,472.077667 233.513168,472.077667 
	C232.845154,463.059387 230.741852,454.108490 237.155579,447.263092 
	C239.973480,444.255585 244.828384,443.156647 249.172089,441.167816 
M248.417313,463.919586 
	C249.658722,461.981415 251.155289,460.156677 252.079697,458.077576 
	C253.357574,455.203461 253.878540,451.467133 250.181900,450.709198 
	C248.357574,450.335175 244.647415,453.051910 243.837463,455.157501 
	C242.329147,459.078461 242.318207,463.575409 241.683990,467.832581 
	C242.111847,468.002716 242.539703,468.172852 242.967560,468.342987 
	C244.609848,467.044495 246.252136,465.746002 248.417313,463.919586 
z"/>
<path fill="#252946" opacity="1.000000" stroke="none" 
	d="
M361.955688,422.932251 
	C362.655731,431.089508 356.644348,438.291748 348.810883,438.945099 
	C347.692719,439.038361 345.643463,438.370148 345.502380,437.729187 
	C345.148865,436.123169 345.003540,433.792084 345.913879,432.711212 
	C348.967651,429.085297 352.391235,425.734924 355.936768,422.574768 
	C357.608002,421.085114 359.885834,419.641357 361.955688,422.932251 
z"/>
<path fill="#E93F37" opacity="1.000000" stroke="none" 
	d="
M286.013062,31.759491 
	C294.813171,32.110935 303.158875,32.046680 311.409454,32.901276 
	C331.291138,34.960636 343.210693,48.819782 341.965302,68.899971 
	C341.555420,75.508682 343.494324,78.704628 349.346313,81.953522 
	C357.318420,86.379463 364.220886,92.732063 371.582001,98.258545 
	C371.391235,99.003090 371.200439,99.747635 371.009674,100.492180 
	C364.287811,101.708511 357.612030,103.379639 350.836456,104.065529 
	C313.748657,107.819839 276.689148,107.437065 239.982727,100.682709 
	C228.374313,98.546631 217.263184,93.708000 205.924484,90.106186 
	C205.890823,89.427803 205.857178,88.749428 205.823532,88.071053 
	C208.813950,86.243904 211.640869,84.037544 214.826843,82.664009 
	C222.891464,79.187210 231.080902,75.988106 239.297073,72.880623 
	C242.453384,71.686852 244.945801,70.509796 245.083237,66.479439 
	C245.911652,42.181801 258.836884,32.084942 281.020233,31.816509 
	C282.518646,31.798378 284.017029,31.779942 286.013062,31.759491 
z"/>
<path fill="#FAFBFB" opacity="1.000000" stroke="none" 
	d="
M211.198700,197.862976 
	C214.129929,203.727524 216.959671,209.212433 219.620056,214.369034 
	C218.722778,216.599884 217.659134,219.244339 216.595490,221.888809 
	C219.154526,221.888809 221.713577,221.888809 224.560394,221.888809 
	C226.695450,226.990616 225.156784,230.351181 219.244293,231.933273 
	C217.646393,232.360825 215.970032,232.505386 214.324203,232.741745 
	C209.319260,233.460434 204.318924,234.643433 199.302811,234.719223 
	C195.086899,234.782913 190.863190,233.452850 186.619507,232.929993 
	C184.518616,232.671173 182.364960,232.840851 180.235168,232.816635 
	C180.988785,234.818085 181.742401,236.819534 182.675552,239.297836 
	C171.672058,258.592407 162.208618,280.041229 144.703812,296.827576 
	C136.683716,286.007904 130.836243,274.955780 133.910324,261.267853 
	C134.536942,258.477814 135.942749,255.536118 137.831863,253.414474 
	C144.848755,245.533768 152.271210,238.133057 163.859116,237.473312 
	C164.945724,237.411438 166.789917,235.397369 166.801468,234.274414 
	C166.861145,228.482895 166.580276,222.675415 166.133896,216.895447 
	C165.825806,212.906403 163.291077,211.619827 159.466660,212.234802 
	C153.495789,213.194916 147.975174,211.920715 141.360626,207.927948 
	C148.009445,206.080887 153.290298,204.214127 158.730820,203.232162 
	C162.890121,202.481461 165.750946,200.992905 167.329605,196.900024 
	C170.470978,188.755630 176.513214,184.286026 185.167892,182.795624 
	C187.232925,182.440002 189.268906,180.301697 190.733551,178.506317 
	C192.349258,176.525757 193.292023,173.996201 195.007675,170.816666 
	C196.249649,173.165375 196.947754,174.747025 197.872894,176.182388 
	C200.001801,179.485428 202.339737,182.656174 204.409454,185.994308 
	C206.743591,189.758942 208.876678,193.648239 211.198700,197.862976 
M189.226227,216.868423 
	C191.415863,215.194565 193.972870,212.786606 190.876465,210.754471 
	C189.012314,209.531067 185.333115,210.574432 182.689346,211.349197 
	C181.920105,211.574631 181.908722,214.386108 181.549942,216.012192 
	C183.862198,216.399582 186.174469,216.786972 189.226227,216.868423 
z"/>
<path fill="#E53F39" opacity="1.000000" stroke="none" 
	d="
M127.973068,281.825073 
	C132.108902,288.080933 136.080490,293.996704 140.241791,300.195007 
	C134.637451,305.861481 128.629807,310.369171 120.783768,311.874573 
	C116.814957,312.636078 113.858261,311.741882 111.728172,307.714386 
	C104.724976,294.472961 99.192917,280.452454 103.200050,265.658783 
	C108.906372,244.591888 120.801422,227.649063 142.605026,220.074844 
	C145.893143,218.932602 149.792465,219.418594 153.410736,219.393448 
	C157.357666,219.365997 159.154984,221.490097 159.717194,225.458633 
	C160.265121,229.326233 158.275497,230.824371 155.355316,232.271362 
	C151.783463,234.041275 148.364685,236.120148 144.880341,238.066528 
	C144.445038,238.309692 144.029297,238.741272 143.578125,238.780258 
	C129.603363,239.987854 127.987236,251.559753 125.403221,261.512726 
	C123.704224,268.056824 124.522270,275.124512 127.973068,281.825073 
z"/>
<path fill="#FCF3F0" opacity="1.000000" stroke="none" 
	d="
M180.340851,260.253784 
	C181.571869,264.324493 182.507217,268.502716 183.659744,273.651001 
	C187.134293,271.799744 190.011932,270.339539 192.814758,268.747559 
	C194.691223,267.681763 196.390274,266.294586 198.293121,265.285950 
	C203.248016,262.659546 205.398453,263.581909 207.315399,268.838806 
	C208.626038,272.433044 209.994217,276.009003 211.444046,279.549194 
	C214.662888,287.408936 216.209991,287.827881 223.366653,282.969330 
	C226.394852,280.913544 229.345749,278.720306 232.502167,276.882111 
	C238.057434,273.646881 240.330521,274.615784 242.405930,280.731293 
	C243.742142,284.668640 245.103226,288.597473 246.458344,292.528381 
	C247.273499,294.892975 247.854935,297.339417 251.308258,297.257507 
	C251.827347,297.245178 253.249771,300.280457 252.818863,300.888336 
	C249.820404,305.117920 252.041168,308.417328 254.178589,311.881958 
	C255.570847,314.138763 257.142822,316.378143 257.989227,318.846558 
	C258.587463,320.591278 258.105011,322.706573 258.105011,324.656433 
	C257.437317,324.929810 256.769623,325.203186 256.101959,325.476562 
	C253.449875,322.099304 250.641571,318.831604 248.180130,315.320709 
	C243.833359,309.120605 243.914520,309.042786 237.096207,312.191956 
	C233.773987,313.726410 230.535873,315.453033 227.168777,316.877838 
	C222.274963,318.948700 220.354202,317.925232 218.458694,313.028473 
	C217.146378,309.638336 215.696854,306.258331 213.893433,303.111755 
	C211.424011,298.803162 207.496872,297.457672 202.759262,298.938477 
	C200.067123,299.779938 197.468567,300.916107 194.805801,301.857147 
	C188.162170,304.205170 184.441940,302.582916 181.510040,296.232117 
	C179.977356,292.912140 179.075409,288.149811 176.463684,286.803833 
	C173.867508,285.465851 169.485519,287.593079 165.477692,288.280884 
	C166.762817,285.316071 168.456879,282.271118 170.779236,279.090271 
	C176.462982,278.308929 176.225845,275.325714 174.599091,271.728729 
	C176.414459,267.939606 178.229828,264.150482 180.340851,260.253784 
M228.290283,308.030548 
	C232.000031,306.183014 235.777115,304.453156 239.368393,302.398560 
	C240.185135,301.931305 241.004913,300.112671 240.720718,299.303070 
	C239.152527,294.835754 237.242722,290.488342 235.382462,285.934357 
	C231.437515,287.708344 227.834442,288.787384 224.893341,290.822906 
	C222.553131,292.442535 219.881699,295.017242 219.407455,297.551575 
	C218.752914,301.049500 224.360306,307.270630 228.290283,308.030548 
M199.557816,274.162537 
	C195.987610,275.903687 192.176666,277.297119 188.948593,279.532379 
	C187.330078,280.653107 185.419113,283.979980 185.995071,285.139313 
	C187.602722,288.375305 187.945557,293.728638 192.819992,293.651398 
	C197.485535,293.577454 202.126282,291.939850 207.628418,290.815704 
	C204.937485,284.739136 202.614105,279.492554 199.557816,274.162537 
z"/>
<path fill="#E5826B" opacity="1.000000" stroke="none" 
	d="
M244.618835,128.318695 
	C247.490250,134.960632 248.771622,135.222565 254.701248,131.501862 
	C256.554382,130.339050 258.915344,129.985519 261.043854,129.261536 
	C261.744659,131.553085 262.992523,133.833344 263.040192,136.138397 
	C263.165802,142.214203 259.793030,146.902756 255.698227,150.926743 
	C252.949799,153.627655 252.770538,156.096771 253.605804,159.820694 
	C254.987503,165.980850 255.161987,172.411774 255.940125,179.606918 
	C236.967010,169.610382 230.483307,140.198456 238.509232,111.394028 
	C240.627106,117.280235 242.548996,122.621704 244.618835,128.318695 
z"/>
<path fill="#FCF1EF" opacity="1.000000" stroke="none" 
	d="
M397.370544,312.174591 
	C395.371124,315.540070 393.472778,318.609100 391.551819,321.663910 
	C388.620728,326.325104 386.171875,326.922974 381.826721,323.582031 
	C379.345398,321.674164 377.158264,319.348572 375.012329,317.048981 
	C372.645538,314.512817 370.485229,314.004578 368.038849,316.909332 
	C365.366882,320.082001 362.868958,323.502777 359.726288,326.136566 
	C358.037537,327.551849 354.158325,328.821838 353.008911,327.925140 
	C350.157227,325.700500 352.301941,322.800323 354.242340,320.754822 
	C356.633728,318.233978 359.429413,316.101807 361.913818,313.662567 
	C364.445435,311.177002 364.774475,308.849640 361.761932,306.109436 
	C359.615448,304.156982 358.001923,301.489563 356.616394,298.892639 
	C356.057220,297.844543 356.245819,295.373260 356.971771,294.902191 
	C358.078827,294.183838 360.392090,294.005920 361.410126,294.718018 
	C364.361664,296.782593 366.923187,299.404755 369.959137,302.092651 
	C372.707855,297.479919 375.358856,292.728180 378.305969,288.167755 
	C381.475586,283.263092 382.634674,283.267548 386.476440,287.444672 
	C388.267578,289.392151 390.137421,291.267242 392.290558,293.285828 
	C394.226837,299.554962 395.844147,305.713379 397.370544,312.174591 
M386.389740,297.992798 
	C385.273163,297.177826 384.156555,296.362823 382.930054,295.467621 
	C380.946869,298.500641 379.334595,301.019073 377.668182,303.501160 
	C375.777802,306.316925 374.939331,309.190582 378.570038,311.085449 
	C381.731476,312.735443 384.811157,316.714508 388.757111,311.655914 
	C393.275635,305.863220 393.301514,304.594543 386.389740,297.992798 
z"/>
<path fill="#F9ECEA" opacity="1.000000" stroke="none" 
	d="
M151.391174,303.997986 
	C154.081039,305.892761 156.572601,307.788025 158.807983,309.948395 
	C159.641708,310.754181 160.505844,312.398804 160.205338,313.258850 
	C159.914948,314.089966 157.957809,315.076996 157.054291,314.828186 
	C153.060394,313.728363 149.182404,312.207642 144.865997,310.723755 
	C146.676743,308.440094 148.883926,306.271942 151.391174,303.997986 
z"/>
<path fill="#C05C64" opacity="1.000000" stroke="none" 
	d="
M174.270874,271.817352 
	C176.225845,275.325714 176.462982,278.308929 171.015106,278.852417 
	C171.729340,276.468964 172.835999,274.187469 174.270874,271.817352 
z"/>
<path fill="#FCF2EF" opacity="1.000000" stroke="none" 
	d="
M292.129791,321.200531 
	C292.989197,320.377716 293.605347,319.818176 294.242676,319.283844 
	C301.395782,313.286469 301.280762,313.344727 297.183289,305.046722 
	C295.739166,302.122040 292.657928,298.208344 296.720367,295.952118 
	C298.233398,295.111816 302.462372,298.444977 305.007782,300.442322 
	C306.600555,301.692108 307.363007,304.000031 308.595093,305.989868 
	C310.401550,305.487305 312.233459,304.977661 314.728241,304.283600 
	C314.812897,305.963776 315.398590,307.548492 314.847015,308.317352 
	C311.913452,312.406616 314.492004,314.739136 317.042603,317.543091 
	C319.014740,319.711212 320.524536,322.402405 321.769073,325.079865 
	C322.274078,326.166229 322.008026,328.349213 321.214325,329.083008 
	C320.492859,329.750061 318.166443,329.669128 317.265533,328.979706 
	C313.740356,326.282013 310.499603,323.212585 306.702911,319.886963 
	C300.964630,322.717438 297.012909,330.269928 287.319885,329.938538 
	C289.103455,326.640320 290.499939,324.057892 292.129791,321.200531 
z"/>
<path fill="#FDEFEC" opacity="1.000000" stroke="none" 
	d="
M337.139130,348.275818 
	C335.929169,343.624725 337.824036,341.843872 342.029449,341.418121 
	C346.470673,340.968506 350.855988,339.609314 355.282562,339.524323 
	C357.460693,339.482452 359.676880,341.419922 361.875824,342.461700 
	C360.235474,344.250031 358.875580,347.099182 356.900482,347.621368 
	C351.661682,349.006439 346.168701,349.494446 340.748535,350.075195 
	C339.657959,350.192017 338.442383,349.142761 337.139130,348.275818 
z"/>
<path fill="#FDF1EC" opacity="1.000000" stroke="none" 
	d="
M328.546387,344.018555 
	C332.730072,347.429077 332.624054,349.975983 328.006348,350.825653 
	C322.443542,351.849213 316.622589,351.762909 310.931213,351.585297 
	C309.533661,351.541687 308.205414,349.277039 306.845337,348.033508 
	C308.093353,346.914520 309.255554,344.959747 310.604248,344.821289 
	C316.429199,344.223297 322.308716,344.157135 328.546387,344.018555 
z"/>
<path fill="#FDEDE8" opacity="1.000000" stroke="none" 
	d="
M296.639923,345.006165 
	C300.488464,348.369171 300.342102,350.586426 296.111786,350.885986 
	C289.796600,351.333191 283.370819,350.672577 277.037811,350.031464 
	C275.769470,349.903107 274.705963,347.751068 273.548004,346.532135 
	C275.062195,345.439941 276.597931,343.389771 278.086853,343.423218 
	C284.160156,343.559601 290.219147,344.333435 296.639923,345.006165 
z"/>
<path fill="#FEEFEB" opacity="1.000000" stroke="none" 
	d="
M387.424164,339.377319 
	C383.294098,340.666809 379.582092,342.159698 375.729584,342.781097 
	C374.314240,343.009369 372.566467,341.176636 370.970337,340.284027 
	C371.861237,338.832855 372.453033,336.509186 373.695404,336.083221 
	C378.773712,334.342163 384.006470,332.938049 389.285370,331.974396 
	C390.624908,331.729828 392.344360,333.566498 393.889282,334.446838 
	C392.634491,335.768768 391.451874,337.172516 390.090759,338.373962 
	C389.516571,338.880768 388.566040,338.961121 387.424164,339.377319 
z"/>
<path fill="#FEEFEC" opacity="1.000000" stroke="none" 
	d="
M258.656616,341.100800 
	C260.233917,342.627777 261.417786,344.098389 262.601654,345.568970 
	C260.811859,346.330841 258.992981,347.790497 257.238037,347.717255 
	C252.832748,347.533447 248.348923,347.047241 244.116379,345.883087 
	C242.167175,345.347015 239.389587,342.978241 239.343338,341.372589 
	C239.245926,337.991394 242.563522,337.476776 245.280106,337.964722 
	C249.651169,338.749847 253.939774,339.994110 258.656616,341.100800 
z"/>
<path fill="#FCEEEB" opacity="1.000000" stroke="none" 
	d="
M183.442184,327.176025 
	C179.183533,325.785950 175.125977,324.788788 171.524246,322.915283 
	C170.093643,322.171143 169.673447,319.484558 168.793243,317.682312 
	C170.655396,317.043060 172.924316,315.393616 174.305130,315.949646 
	C178.864700,317.785645 183.153107,320.333588 187.416473,322.828888 
	C188.131042,323.247101 188.203201,324.762970 188.572189,325.771637 
	C186.990128,326.253632 185.408051,326.735626 183.442184,327.176025 
z"/>
<path fill="#EDEFF3" opacity="1.000000" stroke="none" 
	d="
M248.155869,464.183533 
	C246.252136,465.746002 244.609848,467.044495 242.967560,468.342987 
	C242.539703,468.172852 242.111847,468.002716 241.683990,467.832581 
	C242.318207,463.575409 242.329147,459.078461 243.837463,455.157501 
	C244.647415,453.051910 248.357574,450.335175 250.181900,450.709198 
	C253.878540,451.467133 253.357574,455.203461 252.079697,458.077576 
	C251.155289,460.156677 249.658722,461.981415 248.155869,464.183533 
z"/>
<path fill="#292B47" opacity="1.000000" stroke="none" 
	d="
M188.856476,217.021393 
	C186.174469,216.786972 183.862198,216.399582 181.549942,216.012177 
	C181.908722,214.386108 181.920105,211.574631 182.689346,211.349197 
	C185.333115,210.574432 189.012314,209.531067 190.876465,210.754471 
	C193.972870,212.786606 191.415863,215.194565 188.856476,217.021393 
z"/>
<path fill="#E64641" opacity="1.000000" stroke="none" 
	d="
M227.896973,308.076599 
	C224.360306,307.270630 218.752914,301.049500 219.407455,297.551575 
	C219.881699,295.017242 222.553131,292.442535 224.893341,290.822906 
	C227.834442,288.787384 231.437515,287.708344 235.382462,285.934357 
	C237.242722,290.488342 239.152527,294.835754 240.720718,299.303070 
	C241.004913,300.112671 240.185135,301.931305 239.368393,302.398560 
	C235.777115,304.453156 232.000031,306.183014 227.896973,308.076599 
z"/>
<path fill="#E44842" opacity="1.000000" stroke="none" 
	d="
M199.924271,274.204285 
	C202.614105,279.492554 204.937485,284.739136 207.628418,290.815704 
	C202.126282,291.939850 197.485535,293.577454 192.819992,293.651398 
	C187.945557,293.728638 187.602722,288.375305 185.995071,285.139313 
	C185.419113,283.979980 187.330078,280.653107 188.948593,279.532379 
	C192.176666,277.297119 195.987610,275.903687 199.924271,274.204285 
z"/>
<path fill="#E24943" opacity="1.000000" stroke="none" 
	d="
M386.656036,298.247681 
	C393.301514,304.594543 393.275635,305.863220 388.757111,311.655914 
	C384.811157,316.714508 381.731476,312.735443 378.570038,311.085449 
	C374.939331,309.190582 375.777802,306.316925 377.668182,303.501160 
	C379.334595,301.019073 380.946869,298.500641 382.930054,295.467621 
	C384.156555,296.362823 385.273163,297.177826 386.656036,298.247681 
z"/>
</svg>