<?xml version="1.0" encoding="UTF-8"?>
<svg version="1.1" xmlns="http://www.w3.org/2000/svg" width="512" height="512">
<path d="M0 0 C10.18192234 6.13803829 20.96288623 7.29084755 32.5546875 5.140625 C40.59872648 2.6010606 47.82902748 -2.32966911 55.0546875 -6.58984375 C88.6938714 -26.36409198 128.93516311 -31.79973462 166.80078125 -22.0859375 C206.28449005 -11.27767501 238.75722213 13.31385078 259.94140625 48.34765625 C270.66801096 67.9105214 277.813111 90.21894457 277.95703125 112.6484375 C277.96409088 113.38490509 277.97115051 114.12137268 277.97842407 114.88015747 C278.20643715 145.65301322 278.20643715 145.65301322 274.75390625 159.66015625 C274.56054688 160.47339355 274.3671875 161.28663086 274.16796875 162.12451172 C264.18019051 203.06977853 240.53216886 237.55717996 211.75390625 267.66015625 C211.20734375 268.25699219 210.66078125 268.85382813 210.09765625 269.46875 C207.88345302 271.43192438 205.63398629 271.42974985 202.75390625 271.66015625 C201.9546875 271.42941406 201.15546875 271.19867188 200.33203125 270.9609375 C197.68485293 270.38546756 197.68485293 270.38546756 195.48046875 272.03125 C191.32292356 275.71040486 191.32292356 275.71040486 189.7109375 280.6953125 C189.86949219 281.34371094 190.02804687 281.99210937 190.19140625 282.66015625 C190.81870635 285.27645666 190.99142029 286.22572148 189.6796875 288.625 C185.2193814 293.87547688 179.78510501 298.10061005 174.39501953 302.3515625 C172.63175269 303.75755927 170.89276486 305.19001394 169.15625 306.62890625 C140.12243932 330.63087988 108.4168488 351.33210982 76.75390625 371.66015625 C76.10921387 372.07555664 75.46452148 372.49095703 74.80029297 372.91894531 C53.02532064 386.89225275 28.30476961 393.69368364 2.56640625 388.09765625 C-15.04405066 383.85722107 -29.32639172 374.63061172 -44.24609375 364.66015625 C-44.93471497 364.20094788 -45.62333618 363.7417395 -46.33282471 363.26861572 C-51.89600532 359.55794756 -57.44888701 355.83215655 -62.99609375 352.09765625 C-63.76666107 351.5793927 -64.53722839 351.06112915 -65.33114624 350.52716064 C-93.33703216 331.66321603 -120.75902247 311.70402018 -145.734375 288.92578125 C-147.14580685 287.65263899 -148.56377794 286.38638035 -150.00366211 285.14550781 C-155.274204 280.60204944 -160.26638719 275.8326028 -165.18359375 270.91015625 C-165.97701172 270.11593262 -166.77042969 269.32170898 -167.58789062 268.50341797 C-173.2192985 262.81291507 -178.32036 256.97125262 -183.24609375 250.66015625 C-184.90907442 248.69869187 -186.57591121 246.7404919 -188.24609375 244.78515625 C-213.58105315 214.35971042 -234.20218543 172.87413957 -234.44921875 132.6015625 C-234.45491882 131.85414291 -234.4606189 131.10672333 -234.4664917 130.33665466 C-234.47587755 128.76099024 -234.48244991 127.18530675 -234.48632812 125.60961914 C-234.49594279 123.25955543 -234.52698909 120.91040284 -234.55859375 118.56054688 C-234.65765534 104.52328989 -232.71478806 91.10529953 -228.55859375 77.66015625 C-228.30368164 76.82967773 -228.04876953 75.99919922 -227.78613281 75.14355469 C-221.20508334 54.51978793 -209.92482105 36.45721667 -195.24609375 20.66015625 C-194.78589844 20.1614502 -194.32570312 19.66274414 -193.8515625 19.14892578 C-188.76790294 13.69717704 -183.3367051 8.67434581 -177.55859375 3.97265625 C-176.54410156 3.14378906 -175.52960938 2.31492187 -174.484375 1.4609375 C-170.24703983 -0.89540932 -168.04384686 -0.75302411 -163.24609375 -0.33984375 C-162.52808594 -0.13359375 -161.81007813 0.07265625 -161.0703125 0.28515625 C-157.47891619 1.02343044 -154.49493056 -1.11146864 -151.38671875 -2.73828125 C-148.85798478 -4.28230624 -148.85798478 -4.28230624 -148.30859375 -7.96484375 C-148.28796875 -9.07859375 -148.26734375 -10.19234375 -148.24609375 -11.33984375 C-141.42264441 -20.90245554 -120.47297118 -22.96030966 -109.64453125 -25.02734375 C-70.67454264 -31.24871666 -32.89191732 -20.88443773 0 0 Z " fill="#E85A6F" transform="translate(234.24609375,74.33984375)"/>
<path d="M0 0 C1.61088351 0.47417067 3.22106684 0.95072053 4.83094788 1.42828369 C5.72769258 1.69340885 6.62443727 1.95853401 7.54835606 2.23169327 C10.09059267 3.02839032 12.39480886 3.98238118 14.74609375 5.234375 C15.5146167 5.64018799 16.28313965 6.04600098 17.07495117 6.46411133 C17.85459229 6.88845459 18.6342334 7.31279785 19.4375 7.75 C20.68333862 8.41261841 20.68333862 8.41261841 21.9543457 9.08862305 C26.36278377 11.46146968 30.56182556 13.96828505 34.6875 16.8125 C47.70713626 25.29133719 62.96724218 27.08780971 78 24 C88.52906437 20.97325261 98.29936906 15.17945165 107.55859375 9.4453125 C123.51351351 0 123.51351351 0 130 0 C130.5727326 44.31472276 131.01299434 88.62905254 131.27663324 132.94674933 C131.30789937 138.18358112 131.34025758 143.42040563 131.37329102 148.65722656 C131.37984878 149.69974477 131.38640654 150.74226297 131.39316302 151.81637263 C131.50182903 168.67786689 131.6988699 185.53722149 131.9288199 202.39744806 C132.16295132 219.70918164 132.30153864 237.01979803 132.35221237 254.33304977 C132.38645195 265.01025016 132.49438265 275.68140354 132.69791167 286.35674083 C132.83049841 293.68629371 132.86991368 301.0127411 132.83753444 308.34340489 C132.82157289 312.57018082 132.84523787 316.78643732 132.98013687 321.01131821 C133.72696025 345.59361653 133.72696025 345.59361653 127.53409076 352.91544342 C120.76003446 358.70037649 113.10359682 362.3976719 105 366 C102.40539157 367.36570151 99.86569636 368.80740214 97.3125 370.25 C95.22703737 371.20845749 93.12329572 372.12855843 91 373 C89.97519531 373.42667969 88.95039063 373.85335938 87.89453125 374.29296875 C71.3270052 380.09259257 51.1089826 378.79809099 35.34765625 371.4855957 C26.51749493 367.20928078 18.33542924 361.93206484 10.21484375 356.45043945 C8.12268456 354.96993773 8.12268456 354.96993773 6.06752825 354.25287753 C3.52869126 353.09872563 1.90174923 352.05629303 0 350 C-1.2280858 345.41556572 -1.04590013 340.82220533 -0.96203613 336.1113739 C-0.96552488 334.66336624 -0.97252982 333.21536349 -0.98274946 331.76738769 C-1.00065257 327.78748731 -0.96862397 323.80930666 -0.92852497 319.82962549 C-0.89400557 315.5386035 -0.90566617 311.24767999 -0.91174316 306.95655823 C-0.91593987 299.52173025 -0.89082149 292.08746352 -0.84584045 284.65277672 C-0.78084819 273.90354311 -0.75999147 263.15458113 -0.74993652 252.40517233 C-0.73242359 234.96551763 -0.67917372 217.52616214 -0.60351562 200.08666992 C-0.53009342 183.14495339 -0.47346121 166.2033181 -0.43945312 149.26147461 C-0.43735134 148.21733977 -0.43524955 147.17320494 -0.43308407 146.09742966 C-0.42264384 140.8593584 -0.41253416 135.62128657 -0.40258884 130.38321435 C-0.31964293 86.92193564 -0.17872722 43.46098325 0 0 Z " fill="#EEECFE" transform="translate(191,71)"/>
<path d="M0 0 C0.68505112 -0.00846954 1.37010223 -0.01693909 2.07591248 -0.02566528 C4.26050285 -0.04517704 6.44424536 -0.04554927 8.62890625 -0.0390625 C9.38085266 -0.037854 10.13279907 -0.03664551 10.90753174 -0.03540039 C48.99045856 0.13048099 80.83593422 16.05967025 107.59375 42.73046875 C132.59905497 69.22993957 143.04535975 103.86998913 142.2890625 139.68066406 C142.04574525 146.29646014 141.21082971 152.80079289 140.19140625 159.3359375 C140.01996094 160.52832031 139.84851563 161.72070312 139.671875 162.94921875 C136.72453246 180.34804728 129.60109187 196.91679963 121.19140625 212.3359375 C120.87204102 212.9330957 120.55267578 213.53025391 120.22363281 214.14550781 C110.99815475 231.33205831 98.81872445 246.22321455 86.12109375 260.94140625 C85.64728271 261.49666992 85.17347168 262.05193359 84.68530273 262.62402344 C83.63630765 263.82610769 82.56015661 265.00477109 81.46508789 266.16503906 C80.63158813 267.06754395 80.63158813 267.06754395 79.78125 267.98828125 C79.26941162 268.52573975 78.75757324 269.06319824 78.23022461 269.61694336 C76.97366817 271.32440292 76.97366817 271.32440292 77.34594727 273.59106445 C77.52182373 274.29062256 77.6977002 274.99018066 77.87890625 275.7109375 C78.51203564 278.98964327 78.38020582 280.02064221 76.62890625 282.9453125 C74.28541054 285.5654709 72.21437545 287.53369742 69.19140625 289.3359375 C66.75 289.359375 66.75 289.359375 64.31640625 288.8359375 C60.87417702 288.13582308 59.66481694 288.06219182 56.5703125 289.8515625 C53.67786485 292.25283979 50.92996847 294.76065 48.19140625 297.3359375 C46.22273494 299.05919179 44.24854635 300.7685346 42.25390625 302.4609375 C41.45992432 303.13842041 41.45992432 303.13842041 40.64990234 303.82958984 C27.49605143 314.92708448 13.2751431 324.81584308 -0.70996094 334.828125 C-2.80389277 336.33255997 -4.88916976 337.84832881 -6.97265625 339.3671875 C-8.25126138 340.29432696 -9.52990507 341.22141327 -10.80859375 342.1484375 C-11.39044434 342.57552002 -11.97229492 343.00260254 -12.57177734 343.44262695 C-16.58219856 346.3359375 -16.58219856 346.3359375 -18.80859375 346.3359375 C-18.80859375 232.8159375 -18.80859375 119.2959375 -18.80859375 2.3359375 C-6.38553289 0.07719916 -6.38553289 0.07719916 0 0 Z " fill="#FE8D9D" transform="translate(354.80859375,63.6640625)"/>
<path d="M0 0 C10.18192234 6.13803829 20.96288623 7.29084755 32.5546875 5.140625 C40.59872648 2.6010606 47.82902748 -2.32966911 55.0546875 -6.58984375 C88.6938714 -26.36409198 128.93516311 -31.79973462 166.80078125 -22.0859375 C206.28449005 -11.27767501 238.75722213 13.31385078 259.94140625 48.34765625 C270.66801096 67.9105214 277.813111 90.21894457 277.95703125 112.6484375 C277.96409088 113.38490509 277.97115051 114.12137268 277.97842407 114.88015747 C278.20643715 145.65301322 278.20643715 145.65301322 274.75390625 159.66015625 C274.56054688 160.47339355 274.3671875 161.28663086 274.16796875 162.12451172 C264.18019051 203.06977853 240.53216886 237.55717996 211.75390625 267.66015625 C211.20863281 268.25570313 210.66335938 268.85125 210.1015625 269.46484375 C207.86675655 271.44701946 205.65995834 271.48223469 202.75390625 271.66015625 C200.15566067 270.86624788 199.10172515 270.10735198 197.44140625 267.97265625 C196.35995399 264.33504412 196.65490022 262.32350968 197.75390625 258.66015625 C199.51287888 256.55296062 201.43058518 254.74670462 203.4453125 252.8828125 C206.78132645 249.67098181 209.58986617 246.09906809 212.48046875 242.48828125 C213.92901727 240.6863068 215.40085547 238.90263753 216.90234375 237.14453125 C247.94552639 200.60995529 264.93566454 154.88659645 261.48046875 106.859375 C257.1241756 71.88573846 239.36654504 39.48139494 211.62890625 17.59765625 C188.64068727 0.05933392 160.7588935 -9.78937954 131.92651367 -9.5456543 C129.6911272 -9.52734146 127.45615712 -9.52514591 125.22070312 -9.52539062 C117.30434027 -9.49871645 109.67767413 -9.06018628 101.75390625 -8.33984375 C101.75390625 105.18015625 101.75390625 218.70015625 101.75390625 335.66015625 C133.93632932 313.29221992 133.93632932 313.29221992 164.56640625 288.91015625 C165.63666634 288.00254236 166.70697717 287.0949883 167.77734375 286.1875 C169.64284326 284.60353913 171.50308538 283.01334244 173.35546875 281.4140625 C176.59855709 278.71871985 178.85849452 276.86678973 183.00390625 275.91015625 C186.88394112 276.96834758 188.44881251 278.37714395 190.75390625 281.66015625 C190.73295838 286.1168161 190.1902448 288.13961202 187.3046875 291.58203125 C186.24186303 292.54341877 185.16118731 293.48532315 184.06640625 294.41015625 C183.48334717 294.92400879 182.90028809 295.43786133 182.29956055 295.96728516 C176.61036951 300.92280396 170.68558281 305.57896147 164.69628906 310.16357422 C162.60681447 311.77348865 160.53484554 313.40419484 158.46484375 315.0390625 C149.21873176 322.32632077 139.81618432 329.30130245 130.13818359 336.00292969 C127.49794569 337.83806535 124.86981418 339.68982429 122.2421875 341.54296875 C111.80963072 348.88098941 101.29122471 355.98645184 90.453125 362.7109375 C87.12670611 364.78003881 83.84721066 366.90779855 80.5859375 369.078125 C57.47348798 384.45617844 33.02227779 393.89707915 4.80883789 388.58520508 C-13.7521592 384.54967855 -28.61506879 375.10597065 -44.24609375 364.66015625 C-44.93471497 364.20094788 -45.62333618 363.7417395 -46.33282471 363.26861572 C-51.89600532 359.55794756 -57.44888701 355.83215655 -62.99609375 352.09765625 C-63.76666107 351.5793927 -64.53722839 351.06112915 -65.33114624 350.52716064 C-93.33703216 331.66321603 -120.75902247 311.70402018 -145.734375 288.92578125 C-147.14580685 287.65263899 -148.56377794 286.38638035 -150.00366211 285.14550781 C-155.274204 280.60204944 -160.26638719 275.8326028 -165.18359375 270.91015625 C-165.97701172 270.11593262 -166.77042969 269.32170898 -167.58789062 268.50341797 C-173.2192985 262.81291507 -178.32036 256.97125262 -183.24609375 250.66015625 C-184.90907442 248.69869187 -186.57591121 246.7404919 -188.24609375 244.78515625 C-213.58105315 214.35971042 -234.20218543 172.87413957 -234.44921875 132.6015625 C-234.45491882 131.85414291 -234.4606189 131.10672333 -234.4664917 130.33665466 C-234.47587755 128.76099024 -234.48244991 127.18530675 -234.48632812 125.60961914 C-234.49594279 123.25955543 -234.52698909 120.91040284 -234.55859375 118.56054688 C-234.65765534 104.52328989 -232.71478806 91.10529953 -228.55859375 77.66015625 C-228.30368164 76.82967773 -228.04876953 75.99919922 -227.78613281 75.14355469 C-221.20508334 54.51978793 -209.92482105 36.45721667 -195.24609375 20.66015625 C-194.78589844 20.1614502 -194.32570312 19.66274414 -193.8515625 19.14892578 C-188.76790294 13.69717704 -183.3367051 8.67434581 -177.55859375 3.97265625 C-176.54410156 3.14378906 -175.52960938 2.31492187 -174.484375 1.4609375 C-170.24520002 -0.89643242 -168.0389809 -0.83838299 -163.24609375 -0.33984375 C-160.24609375 1.66015625 -160.24609375 1.66015625 -159.30859375 5.47265625 C-158.79293074 8.53699852 -159.12525272 9.47523729 -160.859375 12.12890625 C-163.47346273 14.90129389 -166.29982816 17.12259255 -169.37109375 19.34765625 C-196.50627993 39.7541987 -212.45936773 71.33388545 -217.86328125 104.44140625 C-219.89022018 122.95534217 -218.44658952 141.57744127 -214.24609375 159.66015625 C-213.98054688 160.80484375 -213.715 161.94953125 -213.44140625 163.12890625 C-208.8825813 179.62751084 -201.43936831 196.22690167 -192.24609375 210.66015625 C-191.60027344 211.67851562 -190.95445312 212.696875 -190.2890625 213.74609375 C-174.6740719 237.70755862 -155.02005353 260.09039122 -133.24609375 278.66015625 C-132.1329789 279.63542406 -131.02111771 280.61212364 -129.91015625 281.58984375 C-121.57237506 288.90993969 -113.06516649 295.928438 -104.24609375 302.66015625 C-103.30878418 303.37703613 -103.30878418 303.37703613 -102.35253906 304.10839844 C-87.96452668 315.08206097 -73.12329976 325.36055209 -58.24609375 335.66015625 C-58.24609375 222.14015625 -58.24609375 108.62015625 -58.24609375 -8.33984375 C-60.55609375 -8.33984375 -62.86609375 -8.33984375 -65.24609375 -8.33984375 C-66.58195791 -8.66288529 -67.91540054 -8.99612226 -69.24609375 -9.33984375 C-90.49836476 -10.44238257 -111.0599213 -9.8505409 -131.14990234 -2.32177734 C-135.6606884 -0.66353841 -139.36027797 0.10543035 -144.24609375 -0.33984375 C-146.68662399 -2.13812919 -147.88008919 -3.52940507 -149.12109375 -6.27734375 C-149.29830341 -9.20130317 -148.64939699 -10.76122491 -147.24609375 -13.33984375 C-102.98639789 -40.25024538 -40.57987971 -25.76584279 0 0 Z M-43.24609375 -3.33984375 C-43.68114326 41.04333096 -44.01585649 85.4262797 -44.21633501 129.8111669 C-44.24009795 135.05315121 -44.26469012 140.29513133 -44.28979492 145.53710938 C-44.29477882 146.58067682 -44.29976272 147.62424426 -44.30489764 148.69943497 C-44.38753616 165.58901535 -44.53731935 182.4773649 -44.71199688 199.3662155 C-44.88978472 216.70058683 -44.99523224 234.03431437 -45.03377515 251.36956 C-45.05982607 262.06407764 -45.14203338 272.75511659 -45.29650662 283.44856295 C-45.39707998 290.78528229 -45.42726804 298.1202083 -45.40261992 305.45756665 C-45.39046501 309.69019358 -45.40883481 313.91675429 -45.51099777 318.14829636 C-46.57531911 334.46008107 -46.57531911 334.46008107 -41.37454057 349.16627026 C-36.93549664 353.19119287 -32.04095735 355.63545725 -26.47780192 357.75616026 C-23.40394671 359.00128398 -20.94566161 360.68174732 -18.24609375 362.59765625 C-13.12098192 365.84329718 -7.90745879 368.47717227 -2.24609375 370.66015625 C-1.4159375 370.98113281 -0.58578125 371.30210937 0.26953125 371.6328125 C17.80435672 377.1444901 38.34938401 374.88785222 54.6484375 366.78125 C57.26571291 365.40196824 59.7651069 363.91514599 62.25691605 362.32210064 C65.36898958 360.38824503 68.46304171 358.90373614 71.84864426 357.50954151 C77.73282886 354.82788229 82.82574119 351.90997281 86.75390625 346.66015625 C90.25244118 336.89693475 89.33553385 325.79126706 89.07521868 315.56125677 C88.98833427 311.27585596 89.01811114 306.99100587 89.03326416 302.70497131 C89.04372077 295.29086958 88.98131767 287.88030439 88.86850739 280.46709251 C88.70552199 269.74966097 88.6538362 259.03392847 88.62874755 248.31539205 C88.58504181 230.92373012 88.45213256 213.53395094 88.26269531 196.14331055 C88.07893681 179.2563617 87.93745827 162.36992536 87.85253906 145.48217773 C87.84728459 144.44014469 87.84203012 143.39811164 87.83661643 142.32450183 C87.81051449 137.09659836 87.78524061 131.86869127 87.76037836 126.64078176 C87.55325333 83.3126029 87.2011792 39.98647702 86.75390625 -3.33984375 C74.68969341 -1.12565499 63.16550802 6.24590699 52.87890625 12.72265625 C39.59402145 20.78696332 24.11995887 24.16269853 8.78515625 20.9296875 C0.16463902 18.71766688 -6.9865535 14.67995902 -14.43579102 9.90356445 C-19.65764537 6.56381585 -24.94317006 3.6606522 -30.55859375 1.03515625 C-31.25782959 0.70475342 -31.95706543 0.37435059 -32.67749023 0.03393555 C-36.1931365 -1.57519671 -39.45263391 -2.6588516 -43.24609375 -3.33984375 Z " fill="#020202" transform="translate(234.24609375,74.33984375)"/>
<path d="M0 0 C0 80.19 0 160.38 0 243 C-31.97479766 215.59303058 -60.63073324 172.96499113 -64.7890625 130.05859375 C-67.46253391 91.29325824 -60.97632878 56.03613779 -35.296875 25.6171875 C-27.60174535 16.84892752 -12.56966835 0 0 0 Z " fill="#FE8D9D" transform="translate(175,66)"/>
<path d="M0 0 C1.27036236 0.94533599 2.53969253 1.89205914 3.80859375 2.83935547 C4.51556396 3.36641083 5.22253418 3.89346619 5.95092773 4.43649292 C8.73098967 6.55776828 11.36177479 8.83058605 14 11.125 C21.39434658 17.45628609 29.11520961 23.29589932 37 29 C37.57347168 29.42104004 38.14694336 29.84208008 38.73779297 30.27587891 C65.73039546 49.93637523 97.56951062 61.97644769 130 69 C131.58012195 78.22596742 132.92493278 87.94530377 130 97 C123.71115467 104.85726653 113.91362094 108.8188465 105 113 C103.56300447 113.77459985 102.13285775 114.56226906 100.71484375 115.37109375 C97.52727538 117.1313927 94.3664423 118.61834706 91 120 C89.97519531 120.42667969 88.95039063 120.85335937 87.89453125 121.29296875 C71.3270052 127.09259257 51.1089826 125.79809099 35.34765625 118.4855957 C26.51749493 114.20928078 18.33542924 108.93206484 10.21484375 103.45043945 C8.10226716 101.9916492 8.10226716 101.9916492 6.06563568 101.09760284 C0.4470282 98.22913874 0.4470282 98.22913874 -0.72927856 94.99479198 C-0.98676915 92.47411064 -0.9901416 90.0608098 -0.90820312 87.52807617 C-0.90937134 86.58124969 -0.91053955 85.63442322 -0.91174316 84.65890503 C-0.90617803 81.53542356 -0.84400054 78.41578119 -0.78125 75.29296875 C-0.76632588 73.12537217 -0.75493967 70.95774858 -0.74694824 68.79011536 C-0.71642812 63.08970402 -0.6378642 57.39092804 -0.54931641 51.69116211 C-0.46742339 45.87310918 -0.43092926 40.0547915 -0.390625 34.23632812 C-0.30487148 22.8235009 -0.16836435 11.41188653 0 0 Z " fill="#D3D3FE" transform="translate(191,324)"/>
<path d="M0 0 C1.1446875 -0.01546875 1.1446875 -0.01546875 2.3125 -0.03125 C4.94320512 0.48877311 6.4343901 1.23572475 8.7421875 2.53125 C13.3044644 4.9333498 17.07391225 4.84071418 22.125 4.5 C28.44386446 4.0780391 31.89290958 4.25136637 37 8.5 C38.62673987 9.9528117 40.21307921 11.45247975 41.75 13 C42.50796875 13.7528125 43.2659375 14.505625 44.046875 15.28125 C47.51860528 19.2251356 48.3717034 22.10959591 48.2734375 27.42578125 C48 29.5 48 29.5 46.4375 33 C44.72054374 37.18041524 44.77872957 40.24162283 46 44.5 C46.66872704 45.84284704 47.35759512 47.17578584 48.0625 48.5 C51.58054687 56.01641748 51.39411235 65.14524622 48.89453125 72.953125 C44.89690046 81.48426202 39.64404457 88.07660152 30.79296875 91.671875 C26.55707545 92.92783217 22.2186668 93.66918253 17.84790039 94.28613281 C14.23970488 94.8465083 11.40540381 95.68764783 8.30859375 97.55859375 C3.68701546 100.27042895 0.2162294 100.4362463 -5 99.5 C-7.50634053 98.38102424 -9.84011527 97.07419486 -12.23046875 95.7265625 C-15.53919422 94.26120312 -18.4710734 93.89347531 -22.0625 93.5 C-30.91421421 92.45353921 -37.37622916 89.1361911 -43.42578125 82.55078125 C-50.21456898 73.70682701 -51.39811278 64.27934281 -50 53.5 C-48.88556326 50.21259797 -47.55451485 47.18144621 -46.0546875 44.0546875 C-44.59414461 40.51692806 -44.89262917 38.11741138 -46 34.5 C-46.350625 33.695625 -46.70125 32.89125 -47.0625 32.0625 C-48.36430125 28.50424324 -48.56702272 25.21142143 -48 21.5 C-44.90360373 15.17258154 -38.93556056 9.38962329 -33.265625 5.2265625 C-28.97510333 3.85063659 -24.35967614 4.50896781 -19.90625 4.75390625 C-14.637853 4.90417932 -11.35647313 3.9934016 -6.76855469 1.42138672 C-4.46317718 0.2203245 -2.58701414 -0.03495965 0 0 Z " fill="#030202" transform="translate(256,196.5)"/>
<path d="M0 0 C23.1 0 46.2 0 70 0 C70 10.6 70 10.6 67 15 C62.37411017 19.59105632 59.00807333 20.8150791 52.625 21.5625 C45.66786932 22.54073484 45.66786932 22.54073484 39.25 25.3125 C36 27 36 27 33.5625 26.4375 C32.716875 25.963125 31.87125 25.48875 31 25 C26.09317596 23.00129367 21.61284473 21.86537684 16.3125 21.5625 C10.1122561 21.12086252 6.85092769 19.05102799 2.6875 14.4375 C-0.86580429 9.30494936 0 7.01770235 0 0 Z " fill="#E85A6F" transform="translate(221,254)"/>
<path d="M0 0 C1.32 0.33 2.64 0.66 4 1 C5.91328273 0.92281874 7.82664125 0.84305759 9.73828125 0.73242188 C18.8850989 0.27257272 18.8850989 0.27257272 22.3828125 2.5546875 C23.84239762 4.31042033 24.99718633 5.95258877 26 8 C25.34 9.65 24.68 11.3 24 13 C23.67 16.63 23.34 20.26 23 24 C15.41 24 7.82 24 0 24 C0 16.08 0 8.16 0 0 Z " fill="#C9C9F1" transform="translate(263,215)"/>
<path d="M0 0 C0 7.92 0 15.84 0 24 C-7.59 24 -15.18 24 -23 24 C-23.33 20.37 -23.66 16.74 -24 13 C-24.93735061 9.50560365 -24.93735061 9.50560365 -26 7 C-24.01913823 4.11874651 -22.98129809 2.71148594 -20 1 C-16.01369627 0.60136963 -12.3648381 0.6848598 -8.36328125 0.88671875 C-5.25888199 0.9912804 -3.001532 0 0 0 Z " fill="#2BC5EF" transform="translate(249,215)"/>
<path d="M0 0 C0.33 0 0.66 0 1 0 C1 108.9 1 217.8 1 330 C6.94 330.33 12.88 330.66 19 331 C15.2983073 333.96135416 11.58539333 336.8816637 7.8125 339.75 C6.76707031 340.54921875 5.72164063 341.3484375 4.64453125 342.171875 C2 344 2 344 0 344 C0 230.48 0 116.96 0 0 Z " fill="#A95D67" transform="translate(336,66)"/>
<path d="M0 0 C5.94 0.33 11.88 0.66 18 1 C14.47214603 3.82228317 10.94683118 6.57259367 7.3125 9.25 C6.35988281 9.95640625 5.40726562 10.6628125 4.42578125 11.390625 C2 13 2 13 0 13 C0 8.71 0 4.42 0 0 Z " fill="#E55A6F" transform="translate(337,396)"/>
</svg>
