<svg version="1.1" id="Layer_1" xmlns="http://www.w3.org/2000/svg" xmlns:xlink="http://www.w3.org/1999/xlink" x="0px" y="0px"
	 width="100%" viewBox="0 0 352 352" enable-background="new 0 0 352 352" xml:space="preserve">
<path fill="#000000" opacity="1.000000" stroke="none" 
	d="
M101.962814,120.915192 
	C94.448822,130.537704 90.566788,141.560638 86.244667,152.374939 
	C85.666046,153.822708 86.022385,154.758270 86.704109,156.030762 
	C89.623276,161.479568 89.245773,167.048492 84.727608,171.086685 
	C80.429184,174.928467 80.855324,178.960068 82.029037,183.725723 
	C85.311684,197.054214 90.757118,209.563126 96.096863,222.126907 
	C97.200058,224.722610 98.081665,227.436737 98.800049,230.166138 
	C99.942505,234.506729 98.528961,237.207657 94.290184,237.080154 
	C78.316704,236.599670 62.327946,235.804550 47.452164,228.898438 
	C43.151878,226.902039 42.104759,223.237366 42.535858,218.921600 
	C44.105392,203.208923 49.337433,188.788376 58.094418,175.674469 
	C60.062435,172.727280 61.398979,170.093323 60.953194,166.142395 
	C60.274124,160.123886 63.040176,155.002747 68.503174,152.011887 
	C71.229645,150.519226 72.598167,148.778946 73.201637,145.662888 
	C78.825119,116.625923 94.366859,92.811974 112.845291,70.486748 
	C127.406448,52.894299 143.121841,36.725674 163.937103,26.478460 
	C174.261292,21.395945 184.856308,16.939346 196.455765,15.712047 
	C203.569199,14.959399 209.919693,17.958004 216.054993,20.817717 
	C233.466629,28.933445 250.181091,38.262260 264.229492,51.656910 
	C274.712250,61.651867 280.213745,74.885109 287.109100,87.216934 
	C296.818268,104.581009 303.416565,123.313660 311.254120,141.502563 
	C313.362213,146.394867 315.927155,151.094269 317.946655,156.019867 
	C321.474762,164.625000 319.610870,169.158371 311.671631,173.907150 
	C296.087860,183.228470 279.227081,188.484604 261.213196,189.965454 
	C256.334778,190.366486 255.076096,192.751160 255.112839,197.079941 
	C255.224472,210.234680 255.412399,223.388382 254.354462,236.531647 
	C253.630508,245.525635 252.906860,254.491531 248.724701,262.680634 
	C247.387344,265.299286 245.422684,267.597626 243.567490,270.301270 
	C247.501190,273.661407 250.942642,277.341553 251.345795,282.967957 
	C251.792313,289.199371 250.066559,294.587433 245.393524,298.699036 
	C243.179337,300.647217 243.502640,302.196838 244.829697,304.259338 
	C246.873749,307.436188 249.916321,309.491333 252.848831,311.685272 
	C258.048065,315.575043 263.378845,319.292969 267.422180,324.523651 
	C269.293396,326.944305 269.349823,328.898956 266.959137,330.971741 
	C259.414703,337.513062 251.662125,342.364319 241.244125,344.851532 
	C226.609238,348.345551 215.666565,342.801544 204.244293,336.255707 
	C201.165253,334.491150 199.087662,331.593323 197.035736,328.727661 
	C194.699539,325.464996 194.891312,323.208984 198.822205,321.226349 
	C208.278641,316.456818 215.752411,309.493958 220.781708,300.060883 
	C221.631546,298.466888 223.074600,296.850372 221.664474,295.022675 
	C215.933014,287.594055 216.797958,280.545410 223.589355,273.138489 
	C215.841965,270.377808 208.784302,267.666565 201.601013,265.343781 
	C186.236465,260.375519 170.973358,255.180008 155.878998,249.394394 
	C141.274048,243.796371 134.361008,233.599442 133.586090,218.362381 
	C133.334167,213.408707 132.311844,208.468414 131.336777,203.582886 
	C129.503647,194.398041 123.362312,188.499527 115.769356,183.749023 
	C111.537926,181.101639 107.265747,178.494476 103.587563,175.057037 
	C101.807182,173.393204 100.665550,171.575745 100.846939,168.950165 
	C102.335045,147.409454 105.863739,126.334267 114.719894,106.429260 
	C115.433899,104.824478 115.912239,103.114838 116.153709,101.286835 
	C110.609428,107.151070 106.561142,114.009010 101.962814,120.915192 
M188.669601,77.633179 
	C190.939758,78.120949 192.497955,79.540657 191.978928,81.832573 
	C190.475906,88.469398 189.467667,95.274078 186.570374,101.511002 
	C185.526367,103.758438 183.466415,105.050728 181.406952,102.840775 
	C178.123489,99.317337 175.147079,95.497383 172.183243,91.691902 
	C171.104858,90.307259 170.728226,88.510765 172.460205,87.266289 
	C173.955399,86.191948 175.261078,87.052292 176.430527,88.172729 
	C178.183914,89.852631 179.295135,92.263306 182.119202,93.199615 
	C183.802887,90.112694 184.987747,86.630424 182.924164,83.836777 
	C179.337051,78.980644 166.875961,79.664566 163.283295,84.593460 
	C159.556366,89.706551 156.112183,95.025543 152.392456,100.144112 
	C146.662735,108.028587 141.607346,109.439842 132.484879,106.009789 
	C129.994904,105.073555 127.472420,104.214668 124.933640,103.420013 
	C122.398964,102.626648 121.390465,104.255135 120.491417,106.249039 
	C119.507347,108.431480 120.202599,109.743484 122.266563,110.565788 
	C124.272720,111.365067 126.258743,112.231499 128.307297,112.905159 
	C147.887405,119.343933 168.159119,122.285049 188.590775,123.497581 
	C220.459427,125.388832 252.129303,123.009430 283.428711,116.539734 
	C286.372772,115.931183 289.671021,115.932571 292.454315,113.781883 
	C290.485291,110.662056 290.936035,105.378700 285.547363,106.501678 
	C276.784149,108.327919 267.580200,107.734360 259.159668,111.337029 
	C257.366486,112.104210 255.623352,112.005234 255.028458,110.043228 
	C254.215515,107.362099 253.425797,104.582542 253.857239,101.696648 
	C254.034592,100.510323 254.458344,99.348473 255.818863,99.112228 
	C257.274445,98.859482 258.037720,99.858925 258.205383,101.090576 
	C258.646027,104.327377 260.449341,104.468628 263.206757,103.949104 
	C266.957123,103.242516 270.842957,103.269333 274.606079,102.611870 
	C278.246552,101.975838 282.101593,101.847603 285.647339,99.547943 
	C279.367462,87.125229 273.555237,74.773964 265.522461,63.646152 
	C264.109406,61.688595 262.744110,59.965855 259.807678,61.281487 
	C247.936371,66.600258 235.095215,67.681847 222.465027,69.762276 
	C197.973846,73.796440 174.771805,69.594215 152.454575,59.312943 
	C151.259552,58.762409 150.112946,58.014729 149.112610,57.161041 
	C148.221451,56.400539 147.582382,55.341564 148.186569,54.058174 
	C148.798203,52.758957 150.033005,52.574043 151.170090,52.872757 
	C153.091827,53.377602 155.017563,53.986572 156.816284,54.821686 
	C172.975571,62.324146 189.872955,66.172745 207.719391,64.640854 
	C221.304367,63.474762 234.866623,61.909500 248.107254,58.464905 
	C250.923325,57.732296 253.555771,56.293880 256.326569,55.158607 
	C253.514389,50.356262 253.269302,50.270100 249.197495,51.193375 
	C242.227737,52.773746 235.292969,54.575382 228.258072,55.788826 
	C207.723114,59.330902 187.803955,56.886471 168.564011,48.929832 
	C166.726898,48.170094 164.974442,47.163883 163.281448,46.112984 
	C162.264114,45.481476 161.599075,44.448952 162.021881,43.128170 
	C162.479813,41.697704 163.723694,41.706070 164.895142,41.738533 
	C167.969330,41.823734 170.733032,43.120171 173.468689,44.272091 
	C189.933319,51.204918 207.006516,52.248920 224.427689,49.571205 
	C230.831696,48.586880 237.132019,47.007561 243.909943,44.027832 
	C230.270660,35.066784 217.025238,27.802490 202.664856,22.716070 
	C199.647568,21.647348 196.371719,21.590837 193.271439,22.377916 
	C173.093887,27.500494 154.853836,36.359550 139.408401,50.560829 
	C136.586594,53.155331 136.557983,55.513248 139.512131,58.009548 
	C140.099976,57.715424 140.573883,57.552963 140.961105,57.271317 
	C142.444962,56.192043 143.630295,53.507103 145.857391,55.605530 
	C147.800888,57.436733 146.098602,59.217785 144.927505,60.861443 
	C143.024155,63.532825 140.764709,65.997643 139.463608,69.584473 
	C142.950897,70.826225 146.247375,71.866257 149.432709,73.176521 
	C151.988266,74.227737 153.344025,76.181038 151.164688,78.614418 
	C147.839294,82.327461 144.263153,85.821945 140.693573,89.306892 
	C139.507645,90.464714 137.838608,90.796562 136.806854,89.177177 
	C135.285477,86.789337 133.768387,84.166573 135.688110,81.311531 
	C137.818115,78.143730 139.109512,82.749405 141.386459,81.975807 
	C142.407761,80.517227 144.692871,79.724365 145.008652,76.999680 
	C143.032990,76.353836 141.125641,75.847771 139.315231,75.105286 
	C137.526627,74.371735 136.109329,74.399307 135.059570,76.232552 
	C131.437485,82.558060 128.058411,88.994377 125.421837,96.271072 
	C128.892654,97.847412 132.016739,99.360886 135.214981,100.696869 
	C140.150803,102.758682 144.230042,101.845177 147.393372,97.225792 
	C151.062592,91.867630 154.999207,86.693230 158.709030,81.362007 
	C162.256088,76.264664 166.840805,73.923409 173.201630,74.522331 
	C178.227753,74.995575 182.963928,76.565178 188.669601,77.633179 
M111.123230,158.667526 
	C109.841911,158.253479 109.278885,156.331314 107.903610,156.662231 
	C104.861252,166.032898 108.547707,172.057083 116.667763,175.974762 
	C117.558723,176.404617 118.319435,177.096909 119.168213,177.622833 
	C130.046738,184.363373 137.440704,193.475723 138.994659,206.602631 
	C139.385025,209.900208 140.103729,213.172668 140.290497,216.478195 
	C141.035202,229.659332 146.535095,238.758453 159.712051,243.571533 
	C179.884232,250.939743 200.431381,257.149933 220.649323,264.353149 
	C235.687592,269.710968 241.175430,266.564178 245.087494,251.051743 
	C245.330933,250.086395 245.493805,249.101059 245.717529,248.130402 
	C248.478531,236.151184 247.627716,223.972153 247.769531,211.843674 
	C247.847198,205.200333 247.121033,198.535400 248.466156,191.919235 
	C249.484467,186.910568 252.058044,184.124619 257.451599,183.568207 
	C275.148773,181.742554 292.195312,177.713211 307.483307,167.981567 
	C313.855316,163.925430 314.227142,162.102173 308.915466,156.097931 
	C304.478668,159.260941 300.004944,162.354828 294.841003,164.417999 
	C270.030273,174.330643 243.910522,176.991531 217.604111,178.117264 
	C192.885849,179.175049 168.424515,176.374069 144.324417,170.846924 
	C133.003250,168.250534 121.459381,166.045547 111.123230,158.667526 
M235.433807,130.284088 
	C232.770493,130.348282 230.097656,130.289780 227.445389,130.496017 
	C205.766785,132.181610 184.207199,131.032455 162.808838,127.394348 
	C147.295944,124.756882 131.604370,122.500397 117.640038,113.306252 
	C113.304657,124.199554 110.036385,134.784775 108.360245,145.841888 
	C107.941757,148.602554 109.736305,150.152847 111.617844,151.584366 
	C116.442657,155.255234 121.868324,157.754639 127.633148,159.528915 
	C144.222885,164.634857 161.256638,167.863556 178.460327,169.457855 
	C211.458649,172.515915 244.266891,170.987854 276.496826,162.479309 
	C284.900238,160.260880 292.915619,156.984161 300.346680,152.443253 
	C303.672729,150.410782 306.013702,147.748672 304.303131,143.345062 
	C302.075500,137.610367 299.783264,131.890030 297.865295,126.049744 
	C296.658783,122.375938 294.660858,121.721291 291.115662,122.553215 
	C273.112488,126.777855 254.764236,128.660461 235.433807,130.284088 
M62.516056,208.122314 
	C62.124157,212.430618 61.540367,216.732117 61.387161,221.048889 
	C61.178680,226.923218 63.919605,228.921600 70.381714,227.722961 
	C69.949020,224.966309 69.437309,222.199677 69.092873,219.412384 
	C68.297867,212.978897 67.212273,206.545731 68.362946,200.041534 
	C68.596252,198.722778 68.945450,197.168640 70.570076,197.102295 
	C72.544609,197.021637 72.852013,198.769577 73.051727,200.245468 
	C73.251778,201.723877 73.231949,203.235855 73.253334,204.733917 
	C73.350868,211.567322 74.197105,218.322159 75.316757,225.051804 
	C75.570282,226.575607 75.831818,228.260468 77.513466,228.654602 
	C81.963089,229.697418 86.375015,231.505157 91.005226,230.218048 
	C92.135094,227.895615 91.075432,225.982635 90.346977,224.244797 
	C84.235634,209.665298 77.897369,195.193893 74.646034,179.584885 
	C73.804703,175.545853 69.222908,177.490982 66.648232,175.958649 
	C64.806442,174.862518 63.977531,176.601471 63.285339,177.906067 
	C56.772842,190.180222 51.631855,202.968582 49.430862,216.760101 
	C48.562958,222.198410 50.266014,223.735275 56.275143,223.542358 
	C56.398815,222.619675 56.646553,221.656433 56.638371,220.695343 
	C56.558182,211.276947 58.398521,202.184753 61.302055,193.283325 
	C61.803513,191.745987 62.454082,189.642319 64.524963,190.135849 
	C66.981377,190.721268 66.341820,192.970139 65.931313,194.720139 
	C64.944145,198.928421 63.834671,203.108002 62.516056,208.122314 
M218.947830,332.307068 
	C218.248276,333.579620 216.770081,334.411377 216.755798,336.316772 
	C220.273956,339.317261 224.678268,340.150299 229.112564,340.623962 
	C234.367126,341.185333 235.948471,339.808472 235.621170,334.585938 
	C235.352783,330.303619 234.274612,326.077911 233.799469,321.800018 
	C233.581650,319.838959 233.706345,317.313263 236.323792,317.153473 
	C238.574127,317.016113 238.977005,319.280762 239.263092,321.123047 
	C240.124817,326.672028 240.956146,332.225708 241.791824,337.728149 
	C243.540009,338.607788 245.200989,337.969452 246.799988,337.829834 
	C251.779724,337.394806 252.508453,336.057220 250.487823,331.360443 
	C249.163071,328.281158 247.284225,325.539917 245.195694,322.932007 
	C243.916611,321.334808 241.268524,319.610718 243.592941,317.568512 
	C245.870422,315.567566 247.876358,317.920349 249.448685,319.584747 
	C252.646210,322.969574 254.780762,327.106598 257.130798,331.482361 
	C259.076904,330.298431 260.720367,329.336273 261.654327,327.253754 
	C259.499054,323.903320 256.251465,321.864868 253.104202,319.751221 
	C248.525284,316.676025 243.494080,313.716248 240.964951,308.846466 
	C237.871414,302.889893 233.087204,300.936066 226.705338,300.179382 
	C221.780136,311.561707 212.246338,319.002747 202.379013,325.949280 
	C208.251190,334.499390 210.612076,334.572723 215.999924,326.575317 
	C218.411880,322.995148 220.392899,319.127319 222.708694,315.478394 
	C223.712524,313.896729 224.648819,311.165894 227.012527,312.301880 
	C229.512634,313.503326 228.297241,316.133362 227.502228,318.048798 
	C225.451294,322.990295 222.412537,327.378967 218.947830,332.307068 
M229.978882,293.621368 
	C233.364166,295.403381 236.793411,296.247742 240.327179,294.025452 
	C244.623169,291.323792 245.944458,285.039795 243.336609,279.802582 
	C240.847641,274.804077 236.693832,273.241058 231.302994,275.274506 
	C222.441620,278.617065 221.569168,286.669495 229.978882,293.621368 
M124.036575,80.162781 
	C122.206184,78.059830 120.375786,75.956886 118.559662,73.870331 
	C116.207237,75.719849 108.496780,84.764465 107.745842,86.419449 
	C106.223701,89.774078 109.099449,91.187088 110.732895,93.098389 
	C111.766670,94.308037 113.399948,95.310158 114.551117,93.718056 
	C117.726997,89.325714 122.019073,85.773582 124.036575,80.162781 
M135.356674,65.311020 
	C137.217392,61.665443 133.743942,60.306419 132.305283,57.227268 
	C129.863632,59.863266 127.802483,61.981785 125.861504,64.205200 
	C121.216331,69.526306 121.767151,72.278008 128.503632,76.282379 
	C130.659332,72.820404 132.823380,69.345001 135.356674,65.311020 
M77.500351,157.641525 
	C76.069664,157.093704 74.587929,156.913071 73.095772,157.241669 
	C69.078568,158.126312 68.176659,161.511734 67.676613,164.769852 
	C67.328476,167.038177 68.729362,169.056229 71.112160,169.616577 
	C75.161453,170.568832 78.212349,168.841019 80.448486,165.487137 
	C82.729912,162.065323 80.750511,159.948059 77.500351,157.641525 
M97.558853,101.023460 
	C94.430084,106.353256 94.509789,106.584190 100.741852,110.245705 
	C110.065292,103.064339 110.533768,99.088036 102.378624,93.880905 
	C100.907188,96.054939 99.429688,98.237938 97.558853,101.023460 
M90.676224,126.760468 
	C91.740341,125.284019 92.819313,123.818024 93.865875,122.329239 
	C97.489410,117.174545 97.210724,115.967010 91.158119,112.030037 
	C89.385765,115.786186 87.345261,119.386978 85.970390,123.226143 
	C84.571037,127.133629 86.640457,128.233994 90.676224,126.760468 
M84.167557,133.751465 
	C82.430145,132.383102 81.552681,133.045044 81.044662,134.973618 
	C80.625000,136.566757 79.692497,138.205154 81.572952,139.431000 
	C82.370735,139.951080 83.499977,140.551773 84.275955,139.547882 
	C85.540382,137.912064 86.401588,136.100189 84.167557,133.751465 
M78.736984,144.950256 
	C78.341064,145.665665 77.758598,146.339905 77.589653,147.105408 
	C77.277618,148.519226 76.752457,150.349136 79.052597,150.506668 
	C80.878113,150.631699 81.510483,149.044052 81.882095,147.567093 
	C82.418045,145.436920 80.800659,145.122498 78.736984,144.950256 
z"/>
<path fill="#000000" opacity="1.000000" stroke="none" 
	d="
M206.691254,103.689339 
	C204.374512,107.399956 202.472473,110.936432 201.591827,114.862259 
	C200.821808,118.294815 198.784058,119.483253 195.478745,119.260765 
	C186.321533,118.644402 177.355835,117.060013 168.559540,114.401817 
	C165.891373,113.595512 164.737381,112.071411 164.692963,109.384521 
	C164.629562,105.548286 164.506699,101.708801 166.007477,98.074173 
	C166.495712,96.891716 166.909317,95.355743 168.658310,95.581108 
	C170.370255,95.801704 170.469650,97.202446 170.566574,98.599113 
	C171.276978,108.835449 171.282700,108.863052 181.583969,110.604179 
	C185.512909,111.268257 189.701096,112.846519 193.352417,112.061249 
	C197.546448,111.159256 196.887238,105.518822 199.251389,102.421082 
	C202.576874,98.063667 205.531387,93.425110 208.719025,88.959946 
	C211.367661,85.249779 215.047333,83.294044 219.537399,82.481117 
	C224.501999,81.582298 229.479843,81.666840 234.460770,81.784615 
	C238.072388,81.870010 239.612732,83.856293 238.590729,87.420265 
	C237.125046,92.531494 235.666214,97.650215 233.978165,102.689949 
	C233.054230,105.448380 231.086746,107.002884 228.243805,104.974373 
	C225.000687,102.660324 221.898514,100.132698 218.870148,97.540138 
	C217.226959,96.133400 216.425247,94.087364 217.898514,92.213905 
	C219.632828,90.008476 221.446350,91.611504 223.123428,92.678795 
	C224.776428,93.730766 225.933243,95.530090 228.274231,96.047241 
	C230.024597,94.012039 230.852463,91.742729 230.240555,88.690048 
	C222.430267,88.647652 215.116684,88.974968 211.055130,97.174171 
	C209.958221,99.388542 208.296356,101.323044 206.691254,103.689339 
z"/>
<path fill="#000000" opacity="1.000000" stroke="none" 
	d="
M251.291611,98.315155 
	C251.256836,102.438072 251.244705,106.098419 251.199219,109.758347 
	C251.154480,113.357613 249.507294,115.281616 245.709930,115.303871 
	C236.379242,115.358566 227.150558,116.616257 217.938568,117.948441 
	C214.332458,118.469948 212.360077,117.182930 212.654388,113.443657 
	C212.926605,109.985374 211.680145,106.167542 214.585709,102.920372 
	C218.718445,104.410797 216.516403,108.905670 219.368408,111.280159 
	C226.190018,110.736893 233.445953,110.160461 240.701614,109.580490 
	C243.507568,109.356201 244.835663,107.936127 244.713699,105.020638 
	C244.518600,100.356140 244.921967,95.720558 245.805420,91.129761 
	C247.710510,81.230080 258.972504,74.868546 268.456238,78.275368 
	C270.899994,79.153221 272.413361,80.799950 272.865662,83.238716 
	C273.761017,88.066521 273.217072,92.882065 271.940674,97.558846 
	C271.257507,100.061943 269.167175,101.083008 266.852997,99.724052 
	C263.711975,97.879585 260.757050,95.696091 257.843536,93.497375 
	C256.696472,92.631729 255.365997,91.378777 256.534485,89.711807 
	C257.706909,88.039146 259.366913,88.348640 261.000885,89.128372 
	C262.588837,89.886131 263.849274,91.492859 266.208038,91.063225 
	C266.660187,88.770210 268.017090,86.219780 265.189667,84.571808 
	C262.179749,82.817451 254.994965,85.418694 253.341202,88.684258 
	C251.894989,91.540009 251.291626,94.642723 251.291611,98.315155 
z"/>
<path fill="#000000" opacity="1.000000" stroke="none" 
	d="
M221.373917,233.969727 
	C217.111542,238.569168 213.141556,243.048386 209.137039,247.496536 
	C207.809387,248.971237 206.483917,250.780945 204.128845,249.884567 
	C201.867401,249.023849 201.790085,246.899109 201.713379,244.852585 
	C201.299805,233.816818 202.998596,222.977432 204.745682,212.143860 
	C205.259262,208.959290 207.212769,206.691879 209.823166,205.048691 
	C213.384201,202.807114 213.361618,200.185455 211.038055,197.113907 
	C209.633087,195.256638 208.053940,193.490189 206.924286,191.474838 
	C205.069733,188.166245 206.499466,185.321396 210.132980,185.889755 
	C216.422852,186.873627 222.798157,185.953522 229.007156,187.220490 
	C234.134628,188.266785 238.688156,190.484421 240.063843,196.045105 
	C241.488770,201.804779 238.530579,205.968475 234.138702,209.316223 
	C233.104034,210.104904 232.054382,210.873932 230.955139,211.694138 
	C231.350601,212.069611 231.553436,212.435394 231.772980,212.445709 
	C241.233185,212.890289 241.946884,211.593506 241.123642,223.334259 
	C240.581848,231.061295 240.657074,239.014832 237.403091,246.350220 
	C236.604645,248.150131 236.028915,250.330414 233.601929,250.508423 
	C230.907639,250.706024 230.637390,248.277924 229.830582,246.539490 
	C227.689285,241.925644 225.688446,237.228867 221.373917,233.969727 
M227.118668,218.408264 
	C225.286850,218.375946 223.452103,218.397400 221.623917,218.298187 
	C219.127411,218.162674 216.225647,218.250473 215.725861,215.003311 
	C215.264343,212.004761 217.992172,211.279602 220.078323,210.337234 
	C224.212173,208.469910 228.041916,206.084610 231.353165,203.031021 
	C235.395462,199.303238 234.597534,195.332947 229.544632,193.473709 
	C225.103577,191.839569 220.583847,191.907410 215.962875,193.174210 
	C220.695297,203.825562 220.691376,203.821259 212.274643,211.496597 
	C211.053665,212.610001 209.431885,213.634766 209.421112,215.431396 
	C209.379578,222.359436 207.740051,229.227203 208.443314,236.787109 
	C211.993225,233.270935 215.094254,230.107956 218.296860,227.051376 
	C221.988159,223.528412 223.889404,223.878357 226.348099,228.289032 
	C228.237747,231.678909 229.593719,235.453354 232.938248,238.225739 
	C234.788101,234.293594 234.629776,230.468292 234.868042,226.696701 
	C235.334473,219.313385 235.363037,219.315186 227.118668,218.408264 
z"/>
<path fill="#000000" opacity="1.000000" stroke="none" 
	d="
M167.865936,227.192230 
	C167.326614,227.391678 167.031296,227.571793 166.836197,227.828201 
	C165.419571,229.689743 165.452469,233.327209 162.183105,232.916763 
	C158.672836,232.476059 158.633392,228.891129 157.927277,226.286591 
	C156.058060,219.391876 154.414429,212.436157 152.667511,205.508102 
	C151.495392,200.859680 152.688614,199.596603 157.293213,200.738800 
	C159.350311,201.249054 161.371719,201.903290 164.503067,202.808289 
	C162.370972,199.687637 160.726196,197.519150 159.333481,195.199341 
	C154.066742,186.426712 158.919662,177.589905 169.219147,177.737961 
	C177.225250,177.853073 184.752594,181.105377 192.624924,182.385956 
	C195.558609,182.863174 195.889374,185.681015 193.817871,187.802628 
	C191.744064,189.926590 189.274673,191.675049 186.915497,193.506714 
	C184.313202,195.527176 183.704193,197.733582 186.236206,200.170593 
	C190.285706,204.068130 190.802322,208.687531 189.689133,213.947098 
	C187.904343,222.379791 188.106384,231.161484 185.324295,239.433258 
	C184.954361,240.533264 184.701935,241.679962 184.250381,242.743622 
	C183.595490,244.286301 182.841324,245.900696 180.881989,246.033340 
	C178.931152,246.165451 177.912216,244.758820 177.120682,243.240707 
	C174.890640,238.963608 172.740448,234.644424 170.471130,230.388565 
	C169.860168,229.242798 168.936478,228.263779 167.865936,227.192230 
M179.416382,193.201523 
	C180.234207,191.079163 183.201370,190.366211 183.175995,187.488388 
	C179.332672,184.843903 174.809509,184.281219 170.452469,183.526703 
	C168.008591,183.103485 165.342789,183.901871 163.942795,186.334076 
	C162.658813,188.564713 164.130341,190.509338 165.258133,192.330551 
	C168.022125,196.793930 172.010437,200.091309 175.984344,203.400162 
	C177.602615,204.747589 178.723419,206.377762 177.952682,208.629135 
	C177.163620,210.933990 175.267426,211.269363 173.135330,211.346283 
	C170.421432,211.444153 167.840164,211.005234 165.314575,210.040009 
	C163.827072,209.471512 162.348724,208.379608 160.453629,209.763672 
	C161.081955,212.940094 160.706360,216.476349 163.511353,219.149536 
	C167.412857,214.531616 168.944458,214.570404 172.094543,219.501984 
	C173.700287,222.015808 174.839630,224.822891 176.316696,227.425385 
	C177.168350,228.925964 177.540070,230.982483 179.929504,231.218750 
	C180.243011,230.879440 180.771835,230.573593 180.859818,230.171310 
	C181.923004,225.310120 182.658371,220.360275 184.011063,215.584183 
	C185.327896,210.934799 184.527695,207.254471 181.185532,203.709122 
	C178.658737,201.028717 176.564697,197.817017 179.416382,193.201523 
z"/>
<path fill="#000000" opacity="1.000000" stroke="none" 
	d="
M135.362610,128.546600 
	C140.046478,129.945084 144.468384,130.932434 148.596252,132.633362 
	C153.955795,134.841827 155.057739,138.081085 153.190125,143.417435 
	C152.037704,146.710251 151.181808,150.106522 150.040329,153.403564 
	C148.192490,158.740875 144.776260,160.720963 139.226074,159.750122 
	C132.945526,158.651550 127.049530,156.342880 121.376572,153.548782 
	C116.490685,151.142319 115.126953,147.490601 116.768257,142.381180 
	C118.435371,137.191406 121.714684,132.972763 125.225746,128.957016 
	C128.200836,125.554298 131.665756,127.652313 135.362610,128.546600 
M146.792618,141.095810 
	C147.364655,138.649063 145.420395,138.397812 143.904358,137.918030 
	C141.065384,137.019608 138.205597,136.171600 135.319412,135.441101 
	C129.852982,134.057556 127.864708,135.505371 125.116920,142.982529 
	C123.343742,147.807617 127.943268,148.085236 130.285339,149.186157 
	C141.784805,154.591644 141.950241,154.410263 146.196106,142.658829 
	C146.308548,142.347626 146.454727,142.048615 146.792618,141.095810 
z"/>
<path fill="#000000" opacity="1.000000" stroke="none" 
	d="
M243.253433,135.187622 
	C247.243393,136.300705 249.289322,138.418411 249.582321,142.350266 
	C249.828262,145.650620 250.686920,148.900803 251.158859,152.189758 
	C252.165985,159.208420 249.440857,163.243011 242.391510,164.008759 
	C236.802505,164.615860 231.097626,164.634521 225.475388,164.332993 
	C218.891296,163.979874 215.995743,160.784500 215.784225,154.082214 
	C215.630692,149.217926 217.039307,144.558105 218.564682,139.970139 
	C219.433441,137.357086 221.634933,136.418884 223.998032,136.241974 
	C230.274963,135.772095 236.510620,134.544220 243.253433,135.187622 
M228.924240,156.771072 
	C232.556976,156.756363 236.191147,156.798798 239.822006,156.708649 
	C242.659988,156.638184 243.816376,155.146988 243.805206,152.235153 
	C243.765823,141.967407 243.190475,141.358475 233.171036,142.233459 
	C224.139236,143.022202 224.164932,143.023651 223.677765,151.693497 
	C223.499573,154.864380 224.476868,156.889389 228.924240,156.771072 
z"/>
<path fill="#000000" opacity="1.000000" stroke="none" 
	d="
M178.822784,163.480713 
	C166.832321,162.087723 163.776398,157.342499 167.249054,146.131805 
	C170.786987,134.710373 170.787003,134.710373 182.726212,134.744095 
	C201.217636,134.796310 203.669937,137.622604 201.173615,156.004776 
	C200.472137,161.170303 197.509827,164.013565 192.188278,164.253632 
	C187.868835,164.448517 183.526978,164.497360 178.822784,163.480713 
M184.847366,156.660782 
	C187.700119,156.399124 191.689331,158.377045 193.082001,155.191666 
	C194.538330,151.860657 194.669678,147.700928 194.430359,143.964279 
	C194.266327,141.403137 191.161118,141.151382 189.131210,141.507309 
	C184.820709,142.263123 179.375702,138.679306 176.353256,143.638031 
	C174.603363,146.508987 173.561310,150.312271 174.209457,154.367065 
	C177.539154,155.132477 180.756210,155.871994 184.847366,156.660782 
z"/>
<path fill="#000000" opacity="1.000000" stroke="none" 
	d="
M285.824829,157.147675 
	C281.364563,158.064041 277.437805,159.371979 273.184540,159.442841 
	C268.441742,159.521866 265.671936,157.315414 264.053650,153.180923 
	C261.913452,147.713028 262.654572,142.007492 262.847534,136.373016 
	C262.917267,134.336487 264.499207,133.215057 266.320526,132.517624 
	C272.080261,130.312042 277.945679,128.395889 283.995514,127.231163 
	C289.251038,126.219353 292.509521,128.494797 294.197083,133.689438 
	C294.966522,136.057831 295.734070,138.439178 296.710876,140.725616 
	C300.279114,149.077499 298.257843,153.557892 289.607727,156.186447 
	C288.494598,156.524673 287.354156,156.773041 285.824829,157.147675 
M289.368774,140.919968 
	C286.438904,132.720123 286.437134,132.715256 278.353516,135.640793 
	C276.324829,136.375015 274.285675,137.090958 272.302765,137.936050 
	C271.426117,138.309677 270.054077,138.904968 269.973877,139.535309 
	C269.509216,143.189377 270.039551,146.882141 271.663239,150.124969 
	C272.998291,152.791351 275.736115,151.554749 277.949036,151.123947 
	C280.710846,150.586304 283.432953,149.841049 286.198578,149.327621 
	C291.158905,148.406784 292.096039,145.783508 289.368774,140.919968 
z"/>
<path fill="#000000" opacity="1.000000" stroke="none" 
	d="
M223.316269,201.660675 
	C222.877335,201.317398 222.756134,201.201767 222.673950,201.063004 
	C221.244095,198.648941 221.553665,196.658905 224.265045,195.501404 
	C226.114395,194.711914 227.780670,195.429947 227.926590,197.384216 
	C228.131317,200.125717 226.912689,202.128815 223.316269,201.660675 
z"/>
<path fill="#000000" opacity="1.000000" stroke="none" 
	d="
M167.690277,188.551208 
	C169.692062,185.975464 171.566360,186.501724 173.381424,188.197891 
	C174.462769,189.208405 174.825806,190.502533 173.953201,191.780426 
	C172.958313,193.237366 171.489426,194.184799 169.693451,193.635529 
	C167.348923,192.918503 166.786636,191.149887 167.690277,188.551208 
z"/>
<path fill="#000000" opacity="1.000000" stroke="none" 
	d="
M141.254944,141.943726 
	C142.808395,144.265106 142.284424,146.036591 140.611069,147.499969 
	C139.020401,148.891022 137.132034,149.537903 135.146194,148.448502 
	C132.064285,146.757797 127.122383,145.321182 128.484833,141.201981 
	C130.017639,136.567688 134.605301,139.282318 137.944839,140.054367 
	C139.021225,140.303192 139.969635,141.105530 141.254944,141.943726 
z"/>
<path fill="#000000" opacity="1.000000" stroke="none" 
	d="
M240.456726,149.317688 
	C240.641296,152.179794 239.658798,154.022766 237.063187,154.225327 
	C233.462006,154.506363 229.712494,154.624924 226.818619,151.973740 
	C225.557602,150.818481 226.161774,149.235809 227.320801,148.023880 
	C230.389954,144.814621 237.271622,145.290329 240.456726,149.317688 
z"/>
<path fill="#000000" opacity="1.000000" stroke="none" 
	d="
M179.958221,152.398941 
	C177.985123,151.645981 176.458069,150.812912 176.783096,148.770569 
	C177.097809,146.793167 178.935349,146.188431 180.495544,146.040634 
	C183.819580,145.725784 187.496628,144.427017 190.077332,147.898407 
	C191.263046,149.493362 191.560715,151.396088 189.980118,152.853729 
	C186.733154,155.848053 183.511398,153.658981 179.958221,152.398941 
z"/>
<path fill="#000000" opacity="1.000000" stroke="none" 
	d="
M272.518402,144.290100 
	C274.569336,140.358383 278.135315,139.472733 281.701080,138.950089 
	C284.609192,138.523849 286.449921,140.251129 286.747437,143.128235 
	C287.020752,145.771637 285.254120,147.236679 282.880554,147.240326 
	C279.251373,147.245880 274.592682,150.779404 272.518402,144.290100 
z"/>
</svg>